<svg width="67" height="65" viewBox="0 0 67 65" xmlns="http://www.w3.org/2000/svg">
<path d="M0.959961 32.461C0.961709 14.4911 15.6151 0.0156353 33.7554 1.24242e-05C51.7576 -0.0156105 66.4914 14.7046 66.4041 32.6797C66.3149 50.5436 51.6632 65.0156 33.5264 65C15.547 64.9844 0.958213 50.4047 0.959961 32.461ZM53.8515 32.5113H53.9231C53.8497 29.201 53.9476 25.875 53.6557 22.5821C53.3341 18.968 51.6056 16.0465 48.304 14.2308C46.2573 13.1059 44.0132 12.6806 41.7043 12.6685C36.3445 12.6337 30.9799 12.6337 25.6107 12.6685C23.6183 12.6789 21.6625 13.0156 19.8343 13.8489C15.6012 15.7826 13.717 19.3186 13.5615 23.7104C13.371 29.142 13.4881 34.5839 13.5091 40.0277C13.5075 41.0992 13.6028 42.1688 13.794 43.2234C14.4931 46.9833 16.5083 49.7781 20.1314 51.29C21.9122 52.0074 23.8185 52.3667 25.7401 52.3472C30.6898 52.3715 35.6419 52.3715 40.5962 52.3472C41.7936 52.3579 42.9901 52.2796 44.1757 52.1128C48.2148 51.4827 51.2805 49.4986 52.8709 45.6207C53.5372 43.9698 53.8715 42.2054 53.8549 40.4269C53.8538 37.7872 53.8526 35.1458 53.8515 32.5026V32.5113Z" fill="currentColor"/>
<path d="M33.6174 48.6046C30.807 48.6046 27.9931 48.674 25.1844 48.5855C22.3075 48.4935 19.789 47.603 18.2876 44.9019C17.5882 43.6718 17.2142 42.2856 17.2005 40.873C17.169 35.2869 17.1009 29.6974 17.2197 24.1131C17.2879 20.9885 18.5568 18.3551 21.6975 17.1157C22.8112 16.6774 23.9954 16.4422 25.1931 16.4214C30.8385 16.3502 36.4838 16.3606 42.1292 16.4214C43.2185 16.4461 44.2974 16.6381 45.3276 16.9907C48.173 17.9333 49.5223 20.1292 50.0222 22.9327C50.1298 23.638 50.1771 24.3511 50.1637 25.0643C50.1742 30.1539 50.2039 35.2435 50.1427 40.3401C50.1334 41.5046 49.9393 42.6604 49.5677 43.7649C48.5663 46.6552 46.3763 48.2418 43.3631 48.464C40.1297 48.7035 36.8788 48.6948 33.6332 48.7955L33.6174 48.6046ZM33.7118 21.9519C31.6129 21.943 29.5584 22.5523 27.808 23.7027C26.0575 24.8532 24.6898 26.4932 23.8776 28.4154C23.0653 30.3377 22.8451 32.456 23.2446 34.5025C23.6442 36.5491 24.6456 38.4321 26.1223 39.9136C27.599 41.395 29.4848 42.4085 31.5413 42.8258C33.5978 43.2431 35.7327 43.0457 37.6762 42.2583C39.6197 41.4709 41.2846 40.129 42.4604 38.4022C43.6363 36.6753 44.2703 34.641 44.2824 32.5564C44.2929 26.6752 39.5949 21.9623 33.7171 21.9588L33.7118 21.9519ZM44.3401 24.0645C44.6181 24.0686 44.8941 24.0183 45.1525 23.9165C45.4109 23.8146 45.6466 23.6632 45.846 23.4709C46.0455 23.2786 46.2049 23.0492 46.315 22.7957C46.4252 22.5422 46.484 22.2696 46.4881 21.9935C46.4791 21.4361 46.2517 20.904 45.8543 20.5103C45.4569 20.1165 44.9206 19.8921 44.3593 19.8845C43.8094 19.8871 43.2825 20.1042 42.8922 20.489C42.5019 20.8737 42.2793 21.3953 42.2725 21.9415C42.2591 22.2187 42.303 22.4957 42.4015 22.7554C42.5 23.0151 42.651 23.252 42.8452 23.4516C43.0394 23.6511 43.2727 23.8091 43.5307 23.9157C43.7887 24.0223 44.0659 24.0753 44.3453 24.0714L44.3401 24.0645Z" fill="currentColor"/>
<path d="M33.6593 25.6512C37.424 25.6356 40.5735 28.7584 40.5718 32.5044C40.57 36.2505 37.4135 39.3768 33.654 39.3542C31.8375 39.3344 30.1009 38.6096 28.8154 37.3348C27.5298 36.06 26.7974 34.3363 26.7747 32.5322C26.738 28.8157 29.8805 25.6668 33.6593 25.6512Z" fill="currentColor"/>
</svg>
