<svg width="78" height="78" viewBox="0 0 78 78" xmlns="http://www.w3.org/2000/svg">
<path d="M8.26962e-05 39.0168C-0.0438486 17.5282 17.4213 0.0484736 38.9842 -0.00032522C60.4617 -0.049124 77.9488 17.4135 78.0001 38.9802C78.0513 60.4638 60.596 77.9362 39.0208 77.9997C17.5555 78.0631 0.044014 60.5687 8.26962e-05 39.0168ZM6.06748 38.9899C6.06652 45.5006 7.99644 51.8655 11.6133 57.2798C15.2301 62.6942 20.3714 66.915 26.3874 69.4087C32.4033 71.9023 39.0237 72.5569 45.4117 71.2896C51.7997 70.0223 57.6685 66.8901 62.2761 62.2889C66.8837 57.6877 70.0233 51.824 71.2981 45.4393C72.5728 39.0545 71.9254 32.4352 69.4377 26.4182C66.9501 20.4012 62.7338 15.2566 57.3219 11.6348C51.9101 8.01296 45.5456 6.07652 39.033 6.07025C34.7038 6.05867 30.4148 6.902 26.4124 8.55182C22.41 10.2016 18.773 12.6255 15.71 15.6842C12.647 18.7429 10.2185 22.3762 8.56378 26.3756C6.90905 30.3751 6.06072 34.6619 6.06748 38.9899Z" fill="currentColor"/>
<path d="M42.0405 32.9685C42.0405 35.5573 42.0649 38.1436 42.0405 40.7299C42.0113 42.9625 40.4078 44.3288 38.3601 43.9336C36.9103 43.653 35.9853 42.4379 35.9707 40.708C35.9512 37.9704 35.9707 35.2303 35.9707 32.4903C35.9707 30.0503 35.9487 27.6104 35.9707 25.1851C35.9878 23.6699 36.7444 22.6183 38.033 22.1644C39.1752 21.7618 40.5615 22.0278 41.2303 23.0452C41.6964 23.7774 41.9639 24.6183 42.0064 25.4852C42.104 27.9739 42.0405 30.4724 42.0405 32.9685Z" fill="currentColor"/>
<path d="M43.0131 52.9467C43.0148 53.4735 42.9128 53.9954 42.7128 54.4828C42.5128 54.9701 42.2187 55.4133 41.8474 55.787C41.476 56.1608 41.0347 56.4577 40.5486 56.6609C40.0624 56.8641 39.541 56.9696 39.0141 56.9714C38.4872 56.9732 37.9651 56.8712 37.4776 56.6712C36.9901 56.4712 36.5468 56.1772 36.173 55.806C35.7992 55.4348 35.5021 54.9936 35.2989 54.5076C35.0956 54.0216 34.9901 53.5003 34.9883 52.9736C34.9847 51.9097 35.4041 50.888 36.154 50.1332C36.904 49.3785 37.9231 48.9524 38.9873 48.9489C40.0514 48.9453 41.0734 49.3645 41.8284 50.1143C42.5834 50.864 43.0095 51.8829 43.0131 52.9467Z" fill="currentColor"/>
</svg>
