<svg width="33" height="33" viewBox="0 0 33 33" xmlns="http://www.w3.org/2000/svg">
<path d="M12.2578 0H14.3232C14.3916 0.0245607 14.4614 0.0449704 14.5323 0.0611179C15.1648 0.16872 15.8068 0.233281 16.4255 0.383924C24.5191 2.3242 28.8495 11.2715 25.3341 18.814C24.9116 19.7213 24.353 20.5657 23.8126 21.5169C23.8902 21.5606 23.9627 21.6129 24.0286 21.6727C26.7486 24.3895 29.4677 27.1065 32.1859 29.8238C32.5301 30.1681 32.852 30.5176 33 30.9937V31.7021C32.8374 31.9741 32.7186 32.2866 32.5052 32.5104C31.8494 33.1991 30.8202 33.1509 30.0956 32.4312C27.2844 29.6238 24.4764 26.8155 21.6715 24.0064C21.5906 23.9255 21.5054 23.8497 21.4177 23.7671C21.3393 23.8256 21.28 23.8704 21.2197 23.9143C17.6484 26.4778 13.7259 27.2241 9.51604 25.9915C2.48351 23.9307 -1.55512 16.5827 0.564449 9.56194C2.08851 4.51498 5.55486 1.41776 10.714 0.258245C11.2225 0.144617 11.7432 0.0860815 12.2578 0ZM13.2698 23.242C18.7249 23.2894 23.23 18.8019 23.2601 13.2901C23.2911 7.8162 18.8196 3.33049 13.3077 3.30467C7.84999 3.28315 3.36387 7.73184 3.30879 13.2238C3.25285 18.6797 7.745 23.1981 13.2698 23.242Z" fill="currentColor"/>
</svg>
