<svg width="65" height="65" viewBox="0 0 65 65" xmlns="http://www.w3.org/2000/svg">
<path d="M34.9804 64.054H30.4537C29.7301 63.962 29.003 63.8804 28.2811 63.7762C20.5769 62.634 14.0559 59.2438 8.81606 53.5189C4.52998 48.8937 1.75183 43.0897 0.846157 36.8684C0.722064 36.0525 0.603224 35.2349 0.484375 34.4173V29.6697C0.524574 29.5117 0.580493 29.3572 0.604962 29.1975C0.833922 27.7411 0.954519 26.2604 1.30408 24.83C5.46031 7.20913 23.2877 -3.51166 40.8635 1.05197C48.6578 3.06304 55.4112 7.90056 59.7928 14.6113C64.1743 21.322 65.8664 29.4193 64.5355 37.3075C63.34 44.5548 59.9406 50.6825 54.4962 55.654C50.0191 59.79 44.4241 62.5385 38.3973 63.5627C37.2578 63.7606 36.1165 63.8943 34.9804 64.054ZM32.2714 42.1819C32.4461 42.2999 32.5982 42.4006 32.7467 42.51L39.8917 47.7263C41.7111 49.0577 42.842 48.6099 43.3104 46.4122C44.8834 39.0382 46.4739 31.6694 48.0294 24.2954C48.2977 23.1442 48.4765 21.9743 48.5642 20.7959C48.6184 19.7543 47.7218 19.1537 46.6818 19.3811C46.4371 19.4364 46.197 19.5101 45.9635 19.6016L22.7931 28.4684C20.1714 29.47 17.562 30.4612 14.9578 31.4889C14.3443 31.7319 13.5945 32.0339 13.6487 32.8255C13.6994 33.5876 14.4666 33.7386 15.0854 33.9313C17.4571 34.6759 19.8324 35.405 22.1989 36.1601C22.3904 36.2328 22.597 36.2574 22.8004 36.2316C23.0038 36.2059 23.1976 36.1306 23.3646 36.0126C27.1119 33.6472 30.8679 31.2933 34.6326 28.951C36.868 27.5536 39.0965 26.1476 41.3528 24.7849C41.6447 24.6113 42.0852 24.6755 42.4557 24.6304C42.2809 24.9047 42.1691 25.2362 41.9314 25.4445C37.2252 29.687 32.5061 33.9179 27.7743 38.1373C27.6178 38.2711 27.4922 38.4368 27.406 38.6231C27.3197 38.8094 27.2749 39.0119 27.2744 39.217C27.1783 40.8782 27.0472 42.5395 26.9249 44.2007C26.8707 45.0148 26.827 45.8324 26.7798 46.6483L26.9546 46.7837C27.402 46.5077 27.9054 46.2942 28.2846 45.9453C29.6444 44.7232 30.9413 43.4491 32.2714 42.1819Z" fill="currentColor"/>
</svg>
