<svg width="66" height="65" viewBox="0 0 66 65" xmlns="http://www.w3.org/2000/svg">
<path d="M30.207 0.163086H34.926C35.1322 0.206483 35.3367 0.260295 35.5447 0.288069C36.6144 0.430411 37.6997 0.501582 38.7554 0.71336C46.8109 2.32252 53.4368 6.29421 58.4495 12.769C64.3919 20.4572 66.4508 29.1696 64.6733 38.677C63.1825 46.6621 59.1031 53.1942 52.6381 58.1553C44.8954 64.0955 36.1127 66.1404 26.5104 64.4045C19.4703 63.1321 13.5104 59.768 8.65329 54.5447C4.21351 49.8387 1.32569 43.8989 0.375774 37.5192C0.24469 36.6721 0.124093 35.8232 0 34.9744V30.1643C0.0961282 29.4613 0.183518 28.7565 0.286637 28.0535C1.21122 21.8616 3.65462 16.3415 7.76541 11.5869C12.8567 5.6988 19.2466 2.02568 26.9561 0.650868C28.0345 0.466865 29.1234 0.327994 30.207 0.163086ZM24.9252 21.1447C25.0017 21.2021 25.0816 21.2549 25.1646 21.3026C25.2602 21.3487 25.3604 21.3848 25.4635 21.4102C26.6974 21.6602 27.4542 22.4275 27.5381 23.6461C27.6657 25.533 27.7007 27.4285 27.6867 29.3206C27.6625 30.0326 27.5226 30.736 27.2724 31.4037C26.9631 32.2855 26.3094 32.4799 25.5753 31.9106C25.0265 31.4819 24.5386 30.9815 24.1247 30.4229C22.2369 27.8506 20.6853 25.0509 19.507 22.0907C19.0806 21.0492 18.364 20.5423 17.2139 20.5614C15.5361 20.5926 13.8582 20.5614 12.1803 20.5614C11.6499 20.5605 11.1199 20.5918 10.5933 20.6551C9.85402 20.7506 9.56738 21.2002 9.76837 21.9015C9.85466 22.205 9.96693 22.5006 10.1039 22.7851C10.9411 24.5331 11.7451 26.3002 12.6417 28.0187C14.7915 32.1432 17.1283 36.1565 20.2533 39.6491C24.1142 43.9593 28.9643 45.8549 34.76 45.3775C35.9991 45.2751 36.3784 44.8672 36.4798 43.6417C36.5759 42.489 36.6214 41.3225 37.2296 40.281C37.7731 39.354 38.516 39.144 39.4126 39.7411C39.8959 40.0832 40.3417 40.4748 40.7426 40.9094C41.7284 41.9266 42.6652 42.9924 43.6649 43.9975C44.5301 44.8654 45.6015 45.4018 46.8389 45.4192C49.3225 45.4556 51.8079 45.4313 54.2932 45.4053C54.5766 45.4164 54.8532 45.3179 55.0648 45.1304C55.2764 44.9429 55.4065 44.6811 55.4275 44.4002C55.4782 43.8656 55.4572 43.1955 55.1741 42.7807C54.3276 41.5239 53.3931 40.3278 52.3776 39.2013C51.2556 37.9671 49.9762 36.8752 48.8087 35.6792C47.8666 34.714 47.8351 33.978 48.5622 32.8427C48.7114 32.6113 48.8681 32.3856 49.0324 32.1658C50.1352 30.6937 51.294 29.2616 52.3287 27.7445C53.3634 26.2273 54.3911 24.698 55.1846 23.0576C56.0585 21.2575 55.4904 20.5597 53.4525 20.5545C51.2224 20.5545 48.9922 20.5516 46.762 20.5458C45.3847 20.5458 45.0701 20.7975 44.5004 22.0404C43.6859 23.8196 42.9274 25.6406 41.9241 27.314C40.9978 28.8606 39.8268 30.2754 38.6837 31.6728C38.0301 32.4678 37.1859 32.3098 36.7787 31.369C36.5543 30.8261 36.4357 30.2459 36.4291 29.6591C36.3871 27.1699 36.4046 24.6806 36.3959 22.1949C36.3989 21.8785 36.379 21.5623 36.3365 21.2488C36.1879 20.2698 35.6373 19.7056 34.6376 19.6865C32.1313 19.6553 29.625 19.664 27.1221 19.6865C26.1084 19.7073 25.4163 20.2489 24.9252 21.1447Z" fill="currentColor"/>
</svg>
