<svg width="65" height="65" viewBox="0 0 65 65" xmlns="http://www.w3.org/2000/svg">
<path d="M30.3533 0H35.0093C35.2138 0.0416611 35.4148 0.0954733 35.6211 0.121512C36.6697 0.262118 37.7499 0.333289 38.7933 0.54333C46.7475 2.13166 53.2999 6.05301 58.2392 12.4515C64.2743 20.282 66.2563 29.1246 64.2341 38.7691C62.6436 46.3514 58.6656 52.5503 52.503 57.2753C44.8546 63.1391 36.1821 65.1632 26.6986 63.4481C19.7425 62.1913 13.8594 58.8654 9.06173 53.7081C4.6788 49.0597 1.82773 43.1942 0.889084 36.8944C0.759748 36.0577 0.6409 35.2193 0.518555 34.3826V29.6315C0.612935 28.9371 0.693332 28.2428 0.801695 27.5484C1.71579 21.4346 4.12249 15.9822 8.18959 11.2867C13.2162 5.46976 19.5292 1.8435 27.1408 0.491254C28.207 0.298571 29.2819 0.161437 30.3533 0ZM32.6446 17.923V18.1295C30.2344 18.1295 27.8207 18.0653 25.4123 18.1469C23.0038 18.2285 20.6024 18.4229 18.2027 18.6329C15.581 18.8621 13.7843 20.3688 13.3718 22.9292C13.0323 25.19 12.8071 27.4663 12.6971 29.7495C12.4963 33.3898 12.6779 37.041 13.2389 40.6439C13.5675 42.8155 14.6774 44.4125 16.8516 45.0773C17.717 45.3235 18.6088 45.4663 19.5082 45.5026C22.5214 45.6762 25.5346 45.8498 28.5513 45.9262C34.7996 46.0997 41.0445 46.0112 47.2701 45.3898C49.9529 45.1224 51.713 43.6782 52.1324 41.0501C52.4889 38.6654 52.717 36.2636 52.8158 33.8549C53.0032 30.3391 52.8152 26.8135 52.2548 23.3372C51.8772 21.0163 50.659 19.3655 48.2558 18.8378C47.1496 18.5963 46.0246 18.4499 44.8931 18.4003C40.8155 18.2059 36.7292 18.0757 32.6446 17.923Z" fill="currentColor"/>
</svg>
