<svg width="63" height="51" viewBox="0 0 63 51" fill="none" xmlns="http://www.w3.org/2000/svg">
<path d="M55.3627 15.6018C54.7161 15.6018 54.1506 15.6849 53.5847 15.9348C50.109 7.52041 42.3504 1.52193 33.1366 0.771973C29.4998 1.02186 26.3477 3.3545 25.8629 6.52067C25.6205 7.68701 25.9435 8.85341 26.6714 9.93662C27.6411 11.2697 29.258 12.1862 31.1167 12.4361C33.7839 12.7691 36.2894 11.2698 36.6124 9.02018C36.693 8.35361 36.5317 7.68705 36.1275 7.10415C35.5615 6.27079 34.5918 5.77102 33.4604 5.60483C31.9246 5.43804 30.4701 6.2714 30.2278 7.52086C30.1472 7.93754 30.3084 8.35422 30.4702 8.52043C30.7933 8.93711 31.3593 9.2701 31.9247 9.35379C32.7332 9.43689 33.541 9.02079 33.6223 8.35422C33.6223 8.18743 33.6223 8.10433 33.5417 7.93754C33.3799 7.68765 33.1374 7.60454 32.8144 7.52086C32.4102 7.43776 32.0871 7.02108 32.0871 6.6044C32.1677 6.18772 32.572 5.85472 32.9762 5.85472C33.7035 5.93782 34.4307 6.3545 34.835 6.93796C35.158 7.43774 35.3198 8.02119 35.2392 8.60405C34.9968 10.1034 33.3804 11.1866 31.6829 10.9368C30.632 10.77 29.6623 10.2702 29.0963 9.43747C28.6114 8.7709 28.4496 7.93815 28.5302 7.10473C28.9345 5.02192 31.1168 3.5226 33.5411 3.85555C35.0768 4.02234 36.4507 4.85512 37.2592 6.02152C37.9058 6.93799 38.2289 8.10433 37.9864 9.2707C37.5016 12.1032 34.7538 14.1028 31.6018 14.1028C31.2787 14.1028 30.9551 14.1028 30.7127 14.0197C28.4497 13.7698 26.4291 12.6035 25.1358 10.8537C24.1661 9.43746 23.7619 7.77129 24.0043 6.18836C24.4086 4.02239 25.7019 2.18952 27.4794 0.939536C18.9929 2.18898 11.8807 8.02137 8.56701 15.9357C8.00098 15.769 7.43553 15.6027 6.78892 15.6027C2.99028 15.6027 0 19.6016 0 24.5175C0 29.4327 3.07139 33.4322 6.78892 33.4322C7.11197 33.4322 7.43557 33.3491 7.83979 33.3491C11.2337 43.4278 20.3668 50.7598 31.1974 50.7598C42.028 50.7598 51.1605 43.4282 54.3126 33.3476C54.6356 33.4307 54.9592 33.4307 55.3634 33.4307C59.1621 33.4307 62.1523 29.4318 62.1523 24.516C62.1523 19.6007 59.081 15.6019 55.3634 15.6019L55.3627 15.6018ZM17.4571 20.4339C17.4571 17.9344 19.397 15.9354 21.8212 15.9354C24.246 15.9354 26.1853 17.935 26.1853 20.4339C26.1853 22.9334 24.2455 24.9325 21.8212 24.9325C19.3964 24.9325 17.4571 22.9333 17.4571 20.4339ZM31.1968 41.5952C25.0544 41.5952 20.0431 37.7626 20.0431 33.0141H42.2693C42.3504 37.7632 37.3391 41.5952 31.1968 41.5952ZM40.5723 24.9328C38.1475 24.9328 36.2082 22.9331 36.2082 20.4342C36.2082 17.9347 38.148 15.9356 40.5723 15.9356C42.9971 15.9356 44.9364 17.9353 44.9364 20.4342C44.9364 22.9337 42.9969 24.9328 40.5723 24.9328Z" fill="white"/>
</svg>
