<svg width="99" height="103" viewBox="0 0 99 103" fill="none" xmlns="http://www.w3.org/2000/svg">
<g clip-path="url(#clip0_736_290)">
<path d="M54.7515 0C56.9184 0.537095 59.0758 1.10668 61.2504 1.60746C72.8778 4.2974 84.5078 6.97842 96.1403 9.65052C98.1691 10.1188 98.9925 11.2025 98.9925 13.2936C98.9925 24.6586 98.9925 36.023 98.9925 47.3867C98.9595 59.2432 95.2225 70.7956 88.2997 80.4418C81.377 90.088 71.6116 97.35 60.3579 101.221C58.7111 101.794 57.0144 102.207 55.3676 102.75C54.0068 103.201 52.6901 102.967 51.4156 102.541C48.4291 101.542 45.4484 100.523 42.5079 99.3971C40.5099 98.6325 39.7633 96.7823 40.556 95.0181C41.3237 93.3132 43.1337 92.7398 45.076 93.4603C47.7132 94.437 50.3792 95.3392 53.049 96.228C53.494 96.3643 53.9689 96.3709 54.4175 96.2471C74.5284 90.3716 87.0253 77.315 91.4955 56.8729C92.2479 53.4324 92.4456 49.8352 92.4916 46.303C92.6202 36.4499 92.5358 26.5929 92.5358 16.736V15.4611L85.5532 13.8594C75.254 11.495 64.9643 9.10004 54.6517 6.81022C53.6114 6.57894 52.4003 6.87138 51.3139 7.11986C39.5138 9.80916 27.7251 12.5482 15.925 15.2375C15.1995 15.4037 14.9403 15.6197 14.9423 16.3843C14.9711 26.6751 14.9423 36.9678 14.9787 47.2587C14.9787 49.0974 15.1707 50.9381 15.3338 52.7711C15.5737 55.3266 14.2263 57.0277 11.95 56.9455C10.4337 56.892 9.08057 55.7299 8.92702 54.2218C8.73509 52.3582 8.52588 50.4851 8.52012 48.6138C8.48366 36.7805 8.49901 24.9472 8.50093 13.1139C8.50093 11.2025 9.42797 10.0882 11.3281 9.65052C24.9875 6.50695 38.6488 3.36019 52.312 0.210251C52.4604 0.158014 52.6016 0.0873753 52.7323 0L54.7515 0Z" fill="#235091"/>
<path d="M0.00191935 77.6495C0.840675 76.0229 2.19573 75.4418 3.97881 75.633C4.62805 75.6743 5.27912 75.6788 5.92887 75.6464L8.16683 70.2811C7.6083 69.7651 6.85207 69.1114 6.14767 68.408C4.83292 67.0911 4.78494 65.3211 5.99604 64.117C7.20715 62.9128 8.97679 62.9701 10.3069 64.2775C10.9979 64.9599 11.6504 65.6824 12.2262 66.2806L17.5736 64.0539C17.5736 63.2396 17.5736 62.2171 17.5736 61.1868C17.5851 59.4035 18.7943 58.1497 20.4986 58.1497C22.203 58.1497 23.418 59.4188 23.418 61.1964C23.418 62.1941 23.418 63.1919 23.418 64.0634L28.8516 66.3055C29.343 65.7607 29.9783 64.9885 30.6827 64.2852C32.0013 62.9682 33.7786 62.9204 34.9897 64.1246C36.2008 65.3288 36.1413 67.0834 34.84 68.4175C34.1663 69.1056 33.437 69.7651 32.8228 70.3385C33.579 72.1333 34.2776 73.7981 35.0569 75.6464C35.8669 75.6464 36.8937 75.6464 37.9206 75.6464C39.7036 75.6559 40.9781 76.8715 40.9781 78.5574C40.9781 80.2432 39.7075 81.4627 37.9263 81.4722C36.9244 81.4722 35.9225 81.4722 35.0473 81.4722L32.8036 86.8757C33.3544 87.3688 34.1299 88.0015 34.8343 88.7048C36.1567 90.0275 36.2028 91.7917 34.9955 92.9959C33.7882 94.2 32.0186 94.1427 30.6846 92.8506C29.9879 92.1721 29.3085 91.4744 28.7 90.8647L23.418 93.0685C23.418 93.8732 23.418 94.8939 23.418 95.9165C23.418 97.6959 22.1934 98.9632 20.5006 98.9651C18.8077 98.967 17.5793 97.6998 17.5678 95.9298C17.5678 94.9321 17.5678 93.9344 17.5678 93.0628L12.1303 90.8131C11.6408 91.3597 11.0094 92.1338 10.305 92.8372C8.98447 94.158 7.20907 94.2058 5.99796 93.0035C4.78686 91.8013 4.83484 90.0256 6.14383 88.7125C6.82904 88.0225 7.55072 87.3745 8.15915 86.7916C7.40101 84.991 6.70237 83.3282 5.92119 81.4741C5.27468 81.4399 4.6267 81.4443 3.98073 81.4875C2.19382 81.6786 0.846433 81.0842 0 79.471L0.00191935 77.6495ZM12.2435 81.5085C13.2589 84.043 14.9728 85.7785 17.5371 86.7648C18.0476 85.3599 18.9017 84.4119 20.4583 84.3985C22.0552 84.3832 22.9362 85.3427 23.4544 86.7667C26.0168 85.7671 27.7461 84.0449 28.7346 81.4971C27.3296 81.0078 26.4102 80.1687 26.3565 78.6663C26.297 77.0225 27.3027 76.1433 28.7346 75.5967C27.7173 73.0584 25.9995 71.3228 23.4237 70.348C22.9842 71.7166 22.1685 72.5958 20.7597 72.7143C19.0323 72.8577 18.0726 71.8408 17.5141 70.348C14.9594 71.3802 13.2147 73.087 12.2493 75.6292C13.6658 76.1204 14.564 76.9461 14.6293 78.4102C14.7022 80.0463 13.7445 80.9638 12.2435 81.5085Z" fill="#235091"/>
</g>
<defs>
<clipPath id="clip0_736_290">
<rect width="99" height="103" fill="white"/>
</clipPath>
</defs>
</svg>
