<svg width="72" height="71" viewBox="0 0 72 71" fill="none" xmlns="http://www.w3.org/2000/svg">
<g clip-path="url(#clip0_737_387)">
<path d="M18.343 32.0267V51.5846C18.3284 51.6736 18.3284 51.7645 18.343 51.8536C18.434 52.3226 18.6921 52.7421 19.069 53.0334C19.4458 53.3247 19.9155 53.4679 20.3898 53.4359H51.9577C52.12 53.4522 52.2835 53.4522 52.4458 53.4359C52.915 53.3377 53.333 53.072 53.6224 52.688C53.9119 52.3041 54.0532 51.8278 54.0203 51.3472V31.8052H18.343V32.0267ZM46.4786 34.5901C47.0398 34.5839 47.5901 34.7452 48.0599 35.0536C48.5298 35.3621 48.8979 35.8037 49.1177 36.3227C49.3375 36.8416 49.399 37.4145 49.2945 37.9686C49.19 38.5227 48.9242 39.0332 48.5307 39.4353C48.1372 39.8374 47.6338 40.1131 47.0843 40.2273C46.5347 40.3416 45.9638 40.2893 45.4439 40.0772C44.9239 39.865 44.4783 39.5024 44.1636 39.0355C43.8489 38.5685 43.6792 38.0182 43.6761 37.4542C43.6719 36.7015 43.9643 35.9778 44.4894 35.4411C45.0146 34.9044 45.7297 34.5985 46.4786 34.5901ZM36.1659 34.5901C36.9175 34.5901 37.6384 34.8902 38.1699 35.4244C38.7014 35.9585 38.9999 36.683 38.9999 37.4384C38.9999 38.1938 38.7014 38.9182 38.1699 39.4524C37.6384 39.9865 36.9175 40.2866 36.1659 40.2866C35.4143 40.2866 34.6934 39.9865 34.162 39.4524C33.6305 38.9182 33.3319 38.1938 33.3319 37.4384C33.3319 36.683 33.6305 35.9585 34.162 35.4244C34.6934 34.8902 35.4143 34.5901 36.1659 34.5901ZM36.1659 45.002C36.838 45.0976 37.4536 45.4323 37.9008 45.9455C38.348 46.4586 38.5971 47.116 38.6028 47.7981C38.6086 48.4803 38.3705 49.1418 37.932 49.6624C37.4934 50.1831 36.8835 50.5282 36.2132 50.6352C35.4615 50.6352 34.7407 50.3351 34.2092 49.8009C33.6777 49.2668 33.3791 48.5423 33.3791 47.7869C33.3791 47.0315 33.6777 46.3071 34.2092 45.7729C34.7407 45.2388 35.4615 44.9387 36.2132 44.9387L36.1659 45.002ZM25.8217 34.5901C26.3816 34.5933 26.9279 34.763 27.3919 35.0778C27.8559 35.3927 28.2167 35.8386 28.4288 36.3593C28.6409 36.88 28.6947 37.4522 28.5836 38.0037C28.4725 38.5551 28.2013 39.0611 27.8044 39.4579C27.4074 39.8546 26.9024 40.1243 26.3531 40.233C25.8038 40.3416 25.2348 40.2843 24.7178 40.0682C24.2009 39.8522 23.7592 39.4871 23.4485 39.0191C23.1378 38.5511 22.972 38.001 22.972 37.4384C22.9719 37.0617 23.0463 36.6887 23.1907 36.341C23.335 35.9934 23.5466 35.678 23.8131 35.4131C24.0796 35.1482 24.3958 34.9391 24.7433 34.7978C25.0907 34.6565 25.4627 34.586 25.8375 34.5901H25.8217ZM25.8217 45.002C26.2106 44.9728 26.6013 45.0246 26.9693 45.1541C27.3374 45.2836 27.6749 45.4881 27.9607 45.7547C28.2465 46.0213 28.4745 46.3443 28.6304 46.7035C28.7864 47.0627 28.8668 47.4504 28.8668 47.8423C28.8668 48.2342 28.7864 48.6219 28.6304 48.9811C28.4745 49.3404 28.2465 49.6634 27.9607 49.93C27.6749 50.1966 27.3374 50.401 26.9693 50.5305C26.6013 50.66 26.2106 50.7118 25.8217 50.6826C25.4329 50.7118 25.0422 50.66 24.6741 50.5305C24.3061 50.401 23.9686 50.1966 23.6828 49.93C23.3969 49.6634 23.1689 49.3404 23.013 48.9811C22.8571 48.6219 22.7766 48.2342 22.7766 47.8423C22.7766 47.4504 22.8571 47.0627 23.013 46.7035C23.1689 46.3443 23.3969 46.0213 23.6828 45.7547C23.9686 45.4881 24.3061 45.2836 24.6741 45.1541C25.0422 45.0246 25.4329 44.9728 25.8217 45.002Z" fill="#EA7327"/>
<path d="M36.0079 7.44191e-05C31.3247 -0.0458636 26.6783 0.835751 22.3342 2.59457C17.99 4.3534 14.0331 6.95498 10.6895 10.2508C7.34577 13.5466 4.68078 17.472 2.84668 21.8029C1.01257 26.1339 0.0452671 30.7855 0 35.4922C0.0914345 44.9991 3.93607 54.0804 10.6885 60.7391C17.4409 67.3978 26.5483 71.0886 36.0079 71.0001C40.6911 71.0439 45.337 70.1602 49.6803 68.3995C54.0237 66.6387 57.9794 64.0354 61.3216 60.7381C64.6639 57.4409 67.3271 53.5143 69.1593 49.1826C70.9915 44.8508 71.9568 40.1988 72 35.4922C71.9568 30.7862 70.9914 26.135 69.159 21.8041C67.3266 17.4733 64.6631 13.5477 61.3207 10.2517C57.9783 6.95574 54.0224 4.35391 49.6791 2.59489C45.3359 0.835874 40.6903 -0.0458569 36.0079 7.44191e-05ZM42.778 14.7001C42.7898 14.3575 42.9002 14.0256 43.0958 13.7448C43.2914 13.4639 43.5639 13.2461 43.8802 13.1177C44.2025 12.9657 44.562 12.9117 44.9144 12.9623C45.2669 13.0129 45.5969 13.1659 45.864 13.4026C46.0859 13.5728 46.2644 13.7935 46.3848 14.0466C46.5052 14.2997 46.5642 14.5779 46.5567 14.8583V23.229C46.5677 23.5054 46.5189 23.781 46.4138 24.0367C46.3086 24.2924 46.1495 24.5222 45.9475 24.7102C45.7455 24.8982 45.5053 25.0399 45.2436 25.1257C44.9818 25.2114 44.7047 25.2391 44.4312 25.2069C44.0125 25.1429 43.6281 24.9369 43.3417 24.6232C43.0554 24.3095 42.8843 23.9069 42.8568 23.4821V18.9883C42.778 17.58 42.7623 16.14 42.778 14.7001ZM31.4892 17.5958H31.7411C34.7011 17.5958 37.6768 17.5958 40.6368 17.5958C40.8572 17.5958 40.9359 17.5958 40.9359 17.8806C40.9359 18.6401 40.9359 19.463 40.9359 20.1592V20.4124H31.4892V17.5958ZM25.8526 14.7634C25.8503 14.5101 25.8992 14.2589 25.9965 14.0252C26.0938 13.7915 26.2374 13.5801 26.4186 13.404C26.5997 13.2278 26.8147 13.0905 27.0503 13.0005C27.286 12.9105 27.5373 12.8696 27.7892 12.8804C28.2756 12.904 28.7352 13.1109 29.0766 13.4599C29.418 13.8089 29.616 14.2743 29.6313 14.7634C29.6313 17.5958 29.6313 20.444 29.6313 23.2923C29.6189 23.7903 29.4123 24.2636 29.0559 24.6099C28.6995 24.9562 28.2219 25.1479 27.7262 25.1436C27.4864 25.1499 27.2476 25.1087 27.0236 25.0222C26.7996 24.9358 26.5948 24.8058 26.4208 24.6397C26.2468 24.4737 26.107 24.2748 26.0096 24.0545C25.9121 23.8341 25.8587 23.5966 25.8526 23.3555C25.8526 21.9156 25.8526 20.4757 25.8526 19.0357C25.8526 17.6116 25.8369 16.1875 25.8526 14.7634ZM52.9648 56.2526L52.3665 56.3475H20.0114C19.5188 56.2621 19.0342 56.135 18.5629 55.9678C17.7832 55.6622 17.0982 55.154 16.5781 54.4951C16.058 53.8362 15.7215 53.0502 15.6029 52.2176C15.5794 51.9121 15.5794 51.6053 15.6029 51.2998V22.8175C15.5663 21.8678 15.806 20.928 16.2926 20.113C16.7791 19.2981 17.4914 18.6433 18.3424 18.2287C18.9855 17.8408 19.7181 17.6281 20.468 17.6116H24.042V20.4282H20.1688C19.6967 20.4577 19.2513 20.6584 18.9154 20.9931C18.5795 21.3278 18.3759 21.7737 18.3424 22.2479C18.3424 24.4315 18.3424 26.631 18.3424 28.8305C18.3372 28.8619 18.3372 28.894 18.3424 28.9254H54.0512C54.0512 28.9254 54.0512 28.7988 54.0512 28.7355V22.4061C54.0655 21.9369 53.9159 21.4774 53.6283 21.1074C53.3406 20.7374 52.9332 20.4803 52.4767 20.3807C52.2622 20.3567 52.0457 20.3567 51.8312 20.3807H48.4618V17.5958H51.8627C53.0366 17.5877 54.1757 17.9958 55.0799 18.7482C55.9841 19.5007 56.5954 20.5493 56.8065 21.7099C56.8299 21.9995 56.8299 22.2906 56.8065 22.5802C56.8065 32.1692 56.8065 41.7583 56.8065 51.3473C56.8063 52.4795 56.4273 53.5787 55.7306 54.4683C55.0339 55.358 54.0597 55.9864 52.9648 56.2526Z" fill="#EA7327"/>
</g>
<defs>
<clipPath id="clip0_737_387">
<rect width="72" height="71" fill="white"/>
</clipPath>
</defs>
</svg>
