<svg width="72" height="71" viewBox="0 0 72 71" fill="none" xmlns="http://www.w3.org/2000/svg">
<g clip-path="url(#clip0_737_382)">
<path d="M58.0155 23.0532C56.7684 23.0532 56.1212 24.5129 56.0896 27.4322V32.4775C56.0319 33.7125 56.1922 34.948 56.5632 36.1267C56.6487 36.46 56.8396 36.7563 57.1073 36.9709C57.3749 37.1856 57.7048 37.3069 58.0471 37.3167C58.3683 37.2991 58.6764 37.1833 58.9304 36.9848C59.1843 36.7863 59.3718 36.5146 59.4678 36.206C59.8403 35.1033 60.0167 33.9432 59.9887 32.779V27.8447C60.045 26.6306 59.8846 25.4163 59.5152 24.259C59.4319 23.9202 59.2399 23.6185 58.9688 23.4005C58.6977 23.1825 58.3626 23.0605 58.0155 23.0532Z" fill="#EA7327"/>
<path d="M36.0079 -0.000145295C31.3248 -0.0462071 26.6786 0.835308 22.3345 2.59406C17.9904 4.35282 14.0335 6.95437 10.6898 10.2502C7.34614 13.5459 4.68113 17.4714 2.84695 21.8024C1.01278 26.1334 0.0453856 30.7851 0 35.4919C0.0916739 44.9992 3.93645 54.0806 10.6889 60.7393C17.4413 67.3979 26.5485 71.0887 36.0079 70.9999C40.691 71.0438 45.3368 70.1602 49.6801 68.3995C54.0234 66.6388 57.9791 64.0355 61.3213 60.7383C64.6635 57.441 67.3268 53.5144 69.159 49.1826C70.9913 44.8508 71.9567 40.1987 72 35.4919C71.9567 30.7859 70.9912 26.1345 69.1587 21.8036C67.3263 17.4727 64.6628 13.5471 61.3203 10.2511C57.9779 6.95513 54.0221 4.35333 49.6789 2.59438C45.3357 0.835433 40.6902 -0.0462003 36.0079 -0.000145295ZM17.8224 40.2993H13.8917V24.8459L10.0715 26.3373V23.053L17.3646 20.0385H17.775L17.8224 40.2993ZM25.2576 38.3795C24.0999 36.6224 23.5456 34.533 23.679 32.4298V30.9701C23.6377 28.9634 23.9918 26.9683 24.7209 25.0997C25.3297 23.5419 26.3776 22.1965 27.736 21.2285C29.0985 20.3126 30.7067 19.8366 32.3455 19.864H32.9454V23.1958H32.7244C32.0834 23.1689 31.4436 23.2731 30.8439 23.5022C30.2442 23.7313 29.6971 24.0805 29.2357 24.5286C28.3105 25.5345 27.7537 26.8272 27.6571 28.1936C28.0805 27.7048 28.6107 27.321 29.2062 27.0722C29.8016 26.8234 30.4462 26.7163 31.0897 26.7593C31.7331 26.8023 32.3579 26.9943 32.9153 27.3201C33.4728 27.646 33.9477 28.097 34.303 28.6378C35.2422 30.1281 35.6998 31.8737 35.6132 33.6356C35.5846 34.8816 35.2827 36.106 34.7292 37.2213C34.2869 38.2085 33.5823 39.0539 32.6928 39.6647C31.7871 40.2572 30.7268 40.5665 29.6461 40.5532C28.7939 40.5769 27.9488 40.3914 27.184 40.0126C26.4193 39.6338 25.758 39.0733 25.2576 38.3795ZM37.7128 59.2749H35.1081V53.944L33.4348 59.3067H31.6983L30.1197 54.1185V59.3067H27.4992V49.1842H30.6564L32.5034 56.0224L34.4293 49.1842H37.7128V59.2749ZM45.7794 51.4372H42.4802V59.2749H39.8597V49.1842H45.7794V51.4372ZM49.6154 31.938C49.7345 34.1898 49.1851 36.4263 48.0368 38.3637C47.5412 39.0425 46.8935 39.5944 46.1462 39.9749C45.3988 40.3554 44.5729 40.5536 43.7351 40.5536C42.8974 40.5536 42.0714 40.3554 41.3241 39.9749C40.5768 39.5944 39.9291 39.0425 39.4335 38.3637C38.3127 36.4964 37.7637 34.3389 37.8549 32.1601V28.3523C37.7458 26.1265 38.2951 23.9182 39.4335 22.0059C39.9027 21.2933 40.548 20.7155 41.3063 20.3289C42.0645 19.9423 42.9096 19.7602 43.7588 19.8005C44.6061 19.7616 45.4492 19.9427 46.2067 20.3261C46.9643 20.7096 47.6108 21.2826 48.0842 21.99C49.2171 23.8755 49.7665 26.0569 49.6628 28.2571L49.6154 31.938ZM63.9491 31.938C64.0682 34.1898 63.5188 36.4263 62.3705 38.3637C61.8732 39.0426 61.2241 39.5945 60.4755 39.9749C59.7269 40.3553 58.8998 40.5535 58.0609 40.5535C57.2221 40.5535 56.395 40.3553 55.6464 39.9749C54.8978 39.5945 54.2487 39.0426 53.7514 38.3637C52.6209 36.5005 52.0711 34.3399 52.1728 32.1601V28.3523C52.0409 26.1346 52.5625 23.9271 53.6724 22.0059C54.1711 21.3237 54.8224 20.7691 55.5738 20.3868C56.3252 20.0046 57.1556 19.8054 57.9978 19.8054C58.84 19.8054 59.6704 20.0046 60.4218 20.3868C61.1732 20.7691 61.8245 21.3237 62.3232 22.0059C63.456 23.8914 64.0055 26.0728 63.9018 28.2729L63.9491 31.938Z" fill="#EA7327"/>
<path d="M31.0682 36.3012C31.4545 35.4801 31.6283 34.5741 31.5733 33.6675C31.6137 32.748 31.4123 31.8341 30.9892 31.0179C30.8689 30.7681 30.6925 30.5499 30.474 30.3803C30.2554 30.2107 30.0007 30.0944 29.7298 30.0406C29.459 29.9867 29.1794 29.9968 28.9131 30.0701C28.6468 30.1433 28.401 30.2776 28.1951 30.4626C27.8588 30.7924 27.5999 31.1935 27.4374 31.6366V33.0646C27.3743 34.1526 27.5691 35.2401 28.0057 36.2378C28.1095 36.5552 28.3104 36.8316 28.5797 37.0275C28.8489 37.2234 29.1729 37.3289 29.5054 37.3289C29.8378 37.3289 30.1618 37.2234 30.4311 37.0275C30.7004 36.8316 30.9012 36.5552 31.005 36.2378L31.0682 36.3012Z" fill="#EA7327"/>
<path d="M43.6953 23.0532C42.4535 23.0532 41.8063 24.5129 41.7537 27.4322V32.4775C41.696 33.7125 41.8563 34.948 42.2272 36.1267C42.3135 36.4625 42.5068 36.7607 42.7776 36.9756C43.0485 37.1905 43.3819 37.3103 43.7269 37.3167C44.0494 37.3101 44.3609 37.1982 44.6144 36.9978C44.8679 36.7974 45.0496 36.5195 45.1319 36.206C45.502 35.1034 45.6679 33.9418 45.6212 32.779V27.8447C45.6731 26.632 45.5183 25.4193 45.1634 24.259C45.0817 23.9253 44.8943 23.6274 44.6296 23.4099C44.3648 23.1925 44.037 23.0673 43.6953 23.0532Z" fill="#EA7327"/>
</g>
<defs>
<clipPath id="clip0_737_382">
<rect width="72" height="71" fill="white"/>
</clipPath>
</defs>
</svg>
