<svg width="72" height="72" viewBox="0 0 72 72" fill="none" xmlns="http://www.w3.org/2000/svg">
<g clip-path="url(#clip0_737_376)">
<path d="M21.9426 28.7196C22.1865 28.7241 22.4263 28.6546 22.6315 28.52C22.8367 28.3853 22.998 28.1916 23.0949 27.9633C23.3594 27.3509 23.4835 26.6851 23.458 26.0165C23.4803 25.3673 23.3505 24.722 23.0792 24.1341C22.9764 23.9093 22.8106 23.7205 22.6027 23.5916C22.3948 23.4628 22.1541 23.3996 21.911 23.4101C21.6756 23.4084 21.4445 23.4738 21.2437 23.5989C21.0428 23.724 20.8803 23.9038 20.7744 24.118C20.4931 24.7196 20.3629 25.3831 20.3955 26.0487C20.3668 26.7192 20.4967 27.387 20.7744 27.9955C20.8804 28.2178 21.0469 28.4042 21.254 28.5326C21.4612 28.661 21.7002 28.7259 21.9426 28.7196Z" fill="#EA7327"/>
<path d="M36.0079 -5.62725e-05C31.3248 -0.0467668 26.6786 0.847164 22.3345 2.63069C17.9904 4.41422 14.0335 7.05241 10.6898 10.3946C7.34614 13.7368 4.68113 17.7176 2.84695 22.1096C1.01278 26.5016 0.0453856 31.2188 0 35.9919C0.0916739 45.633 3.93645 54.8424 10.6889 61.5948C17.4413 68.3473 26.5485 72.09 36.0079 72C40.691 72.0445 45.3368 71.1485 49.6801 69.363C54.0234 67.5775 57.9791 64.9375 61.3213 61.5938C64.6635 58.2502 67.3268 54.2682 69.159 49.8754C70.9913 45.4826 71.9567 40.765 72 35.9919C71.9567 31.2196 70.9912 26.5027 69.1587 22.1108C67.3263 17.7189 64.6628 13.738 61.3203 10.3956C57.9779 7.05318 54.0221 4.41474 49.6789 2.63101C45.3357 0.84729 40.6902 -0.04676 36.0079 -5.62725e-05ZM30.4039 28.816C30.2794 26.5678 30.8006 24.3314 31.9035 22.3803C32.3743 21.6359 33.0294 21.0313 33.8027 20.6273C34.5759 20.2234 35.44 20.0344 36.3078 20.0795C37.1552 20.0401 37.9982 20.2236 38.7557 20.6125C39.5133 21.0014 40.1598 21.5825 40.6332 22.2998C41.7661 24.2119 42.3156 26.424 42.2118 28.6551V32.3879C42.3309 34.6714 41.7814 36.9395 40.6332 38.9041C40.1636 39.6274 39.5186 40.2148 38.7608 40.6094C38.003 41.0041 37.1581 41.1926 36.3078 41.1566C35.4691 41.1909 34.6355 41.0082 33.8847 40.6256C33.1339 40.243 32.4904 39.6729 32.014 38.9684C30.8835 37.0791 30.3337 34.8881 30.4354 32.6775L30.4039 28.816ZM21.9426 41.1566C21.1649 41.1938 20.3879 41.0705 19.6582 40.794C18.9284 40.5175 18.2611 40.0936 17.6961 39.5477C17.1586 38.9765 16.7414 38.2993 16.4699 37.5578C16.1984 36.8163 16.0785 36.0261 16.1175 35.2357C16.0912 34.1949 16.3421 33.1662 16.8437 32.2592C17.313 31.4292 17.9951 30.7451 18.8169 30.2802C18.0886 29.8419 17.4932 29.2072 17.0963 28.446C16.6622 27.6323 16.4445 26.7171 16.4648 25.7912C16.4208 25.0229 16.5295 24.2535 16.7845 23.5291C17.0395 22.8047 17.4355 22.1403 17.9487 21.5758C18.472 21.0601 19.0938 20.6597 19.7755 20.3995C20.4571 20.1393 21.1841 20.0249 21.911 20.0634C22.6442 20.0225 23.3778 20.1373 24.0653 20.4004C24.7528 20.6635 25.3792 21.0692 25.9048 21.5919C26.9022 22.7292 27.4235 24.2191 27.3572 25.743C27.3745 26.6666 27.1627 27.5797 26.7415 28.3977C26.3387 29.1546 25.7446 29.7879 25.0208 30.2319C25.8432 30.7032 26.5251 31.3926 26.9941 32.227C27.4852 33.1318 27.7304 34.1538 27.7044 35.1874C27.7684 35.9766 27.6636 36.7705 27.3971 37.5143C27.1306 38.2582 26.7089 38.9342 26.161 39.4956C25.6131 40.0571 24.9522 40.4906 24.2239 40.7663C23.4956 41.0419 22.7172 41.1532 21.9426 41.0922V41.1566ZM37.5391 60.1099H34.9344V54.7039L33.2611 60.1421H31.572L29.9934 54.8808V60.1421H27.3414V49.877H30.4986L32.3455 56.8116L34.2714 49.877H37.5391V60.1099ZM45.5426 52.1617H42.3065V60.1099H39.686V49.877H45.5426V52.1617ZM56.4192 32.3879C56.5298 34.6706 55.9809 36.9362 54.8406 38.9041C54.3433 39.5926 53.6941 40.1523 52.9455 40.538C52.1969 40.9238 51.3699 41.1248 50.531 41.1248C49.6922 41.1248 48.8651 40.9238 48.1165 40.538C47.3679 40.1523 46.7188 39.5926 46.2214 38.9041C45.1007 37.0105 44.5517 34.8226 44.6428 32.6131V28.7517C44.5338 26.4946 45.0831 24.2552 46.2214 22.3159C46.7201 21.6242 47.3714 21.0617 48.1228 20.6741C48.8743 20.2864 49.7046 20.0844 50.5468 20.0844C51.389 20.0844 52.2194 20.2864 52.9708 20.6741C53.7222 21.0617 54.3735 21.6242 54.8722 22.3159C56.005 24.2279 56.5545 26.4401 56.4508 28.6712L56.4192 32.3879Z" fill="#EA7327"/>
<path d="M36.3088 37.8422C36.63 37.8244 36.9382 37.707 37.1921 37.5057C37.446 37.3044 37.6335 37.0289 37.7295 36.716C38.0997 35.5978 38.2656 34.4199 38.2189 33.2407V28.2369C38.2751 27.0057 38.1147 25.7742 37.7453 24.6007C37.6643 24.2648 37.4793 23.9645 37.2177 23.7443C36.9561 23.524 36.6319 23.3955 36.293 23.3779C35.0512 23.3779 34.4039 24.8581 34.3513 27.8185V32.935C34.2936 34.1873 34.4539 35.4402 34.8249 36.6355C34.9104 36.9735 35.1013 37.274 35.369 37.4916C35.6367 37.7093 35.9665 37.8323 36.3088 37.8422Z" fill="#EA7327"/>
<path d="M21.9106 32.0179C21.6355 32.0135 21.3641 32.0824 21.1232 32.2179C20.8823 32.3533 20.6803 32.5506 20.5372 32.7902C20.1708 33.4451 19.9956 34.1931 20.0321 34.9461C20.0019 35.6659 20.1715 36.3797 20.5214 37.0056C20.6672 37.2499 20.8742 37.4503 21.1211 37.5861C21.368 37.7218 21.646 37.788 21.9264 37.7779C22.1988 37.7795 22.4671 37.7092 22.705 37.5739C22.9428 37.4386 23.1423 37.2428 23.284 37.0056C23.632 36.3561 23.796 35.6208 23.7576 34.8818C23.7989 34.1303 23.6291 33.3824 23.2682 32.7258C23.119 32.5005 22.9162 32.3175 22.6789 32.1937C22.4415 32.0699 22.1772 32.0094 21.9106 32.0179Z" fill="#EA7327"/>
<path d="M50.5142 23.3779C49.2619 23.3779 48.6147 24.8581 48.5726 27.8185V32.935C48.5183 34.1883 48.684 35.4415 49.0619 36.6355C49.1474 36.9735 49.3384 37.274 49.606 37.4916C49.8737 37.7093 50.2035 37.8323 50.5458 37.8422C50.867 37.8244 51.1752 37.707 51.4291 37.5057C51.683 37.3044 51.8705 37.0289 51.9666 36.716C52.3204 35.5939 52.4858 34.4189 52.4559 33.2407V28.2369C52.5122 27.0057 52.3518 25.7742 51.9823 24.6007C51.9006 24.2623 51.7132 23.9601 51.4485 23.7396C51.1837 23.5191 50.8559 23.3922 50.5142 23.3779Z" fill="#EA7327"/>
</g>
<defs>
<clipPath id="clip0_737_376">
<rect width="72" height="72" fill="white"/>
</clipPath>
</defs>
</svg>
