<svg width="103" height="103" viewBox="0 0 103 103" fill="none" xmlns="http://www.w3.org/2000/svg">
<g clip-path="url(#clip0_735_278)">
<path d="M51.5121 -0.000166953C58.2837 -0.0119019 64.9909 1.31454 71.2482 3.90294C77.5056 6.49135 83.1898 10.2907 87.9743 15.0827C92.7588 19.8747 96.5492 25.5648 99.1278 31.8263C101.706 38.0877 103.022 44.7969 103 51.5684C102.984 80.0791 79.9481 103.028 51.3709 103C22.9369 102.974 -0.0141197 79.9318 6.51742e-06 51.4292C0.0141327 22.967 23.0196 -0.000166953 51.5121 -0.000166953ZM7.4667 47.9239C8.53423 47.9239 9.59773 47.9239 10.6612 47.9239C12.7741 47.9481 14.3058 49.4576 14.3038 51.4978C14.3017 53.538 12.7701 55.0435 10.6552 55.0677C9.59168 55.0798 8.52818 55.0677 7.30526 55.0677C8.47571 66.8933 13.319 76.7231 22.053 84.5551C29.3845 91.1298 38.0115 94.7703 47.9241 95.6542C47.9241 94.4555 47.9241 93.4667 47.9241 92.4779C47.9362 90.258 49.3932 88.6981 51.4718 88.69C53.5503 88.6819 55.0537 90.2257 55.0719 92.4274C55.0719 93.4808 55.0719 94.5322 55.0719 95.5896C78.3317 93.9974 94.9138 73.795 95.4768 55.0657C94.4476 55.0657 93.4204 55.0657 92.3912 55.0657C90.2582 55.0435 88.7164 53.5703 88.6962 51.5422C88.674 49.4495 90.2199 47.936 92.4074 47.9098C93.4648 47.9098 94.5243 47.9098 95.5898 47.9098C94.0864 25.1384 74.3804 8.2253 55.0739 7.49276C55.0739 8.51993 55.0739 9.54711 55.0739 10.5723C55.0558 12.7699 53.5544 14.3157 51.4637 14.3016C49.4295 14.2875 47.9483 12.7497 47.9261 10.6187C47.916 9.5572 47.9261 8.49774 47.9261 7.4302C26.3938 8.67734 8.45351 27.3199 7.4667 47.9239Z" fill="#235091"/>
<path d="M51.5284 62.2279C50.1164 62.2408 48.716 61.9724 47.4088 61.4385C46.1016 60.9045 44.9138 60.1156 43.9147 59.1178C42.9156 58.12 42.1251 56.9332 41.5894 55.6267C41.0537 54.3202 40.7835 52.9202 40.7946 51.5082C40.7946 50.7009 40.5363 50.3316 39.8158 50.0067C36.5264 48.5255 33.2673 46.9797 30.0001 45.45C27.748 44.3966 26.8682 42.3786 27.7924 40.4312C28.7167 38.4838 30.8195 37.8804 33.0797 38.9278C36.3872 40.4615 39.6968 41.9912 42.9841 43.5692C43.6178 43.874 43.9931 43.8175 44.538 43.3513C48.6306 39.8581 54.4263 39.8581 58.4825 43.3816C59.1223 43.9345 59.542 43.7852 60.1535 43.4966C67.1493 40.218 74.1525 36.9488 81.1631 33.689C83.7724 32.4782 86.2788 33.7092 86.6582 36.3689C86.8883 37.9834 85.9943 39.396 84.1458 40.2597C77.6457 43.2867 71.1618 46.3642 64.6295 49.3247C63.0433 50.0431 62.2078 50.7171 62.0948 52.7553C61.7881 58.1192 56.9468 62.2219 51.5284 62.2279ZM51.5123 47.9302C49.6254 47.9302 47.9162 49.6314 47.9303 51.5162C47.9444 53.3587 49.573 55.0155 51.4275 55.07C53.2821 55.1245 55.0358 53.4394 55.06 51.5404C55.0842 49.6415 53.4032 47.9383 51.5123 47.9302Z" fill="#235091"/>
</g>
<defs>
<clipPath id="clip0_735_278">
<rect width="103" height="103" fill="white"/>
</clipPath>
</defs>
</svg>
