<svg width="71" height="70" viewBox="0 0 71 70" fill="none" xmlns="http://www.w3.org/2000/svg">
<g clip-path="url(#clip0_737_373)">
<path d="M26.8463 34.0094L26.6599 34.1342L18.897 41.1544C17.609 42.3017 16.7994 43.8951 16.6302 45.6162C16.459 47.0189 16.7121 48.4409 17.3567 49.697C18.0012 50.953 19.0072 51.985 20.2437 52.6584C21.4802 53.3318 22.8898 53.6154 24.289 53.4724C25.6882 53.3294 27.0121 52.7663 28.0883 51.8565C29.5478 50.6084 30.9451 49.298 32.3579 48.0031L36.0842 44.6334C31.9812 42.1424 28.7523 38.429 26.8463 34.0094V34.0094Z" fill="#EA7327"/>
<path d="M35.5078 7.84219e-07C30.8896 -0.0452902 26.3078 0.823907 22.024 2.55796C17.7402 4.29201 13.8382 6.85695 10.541 10.1063C7.24374 13.3557 4.61577 17.2258 2.80714 21.4958C0.998507 25.7657 0.0446384 30.3518 0 34.9922C0.0901646 44.3653 3.8814 53.3187 10.54 59.8836C17.1987 66.4484 26.1795 70.0873 35.5078 70C40.1259 70.0432 44.7073 69.172 48.9903 67.436C53.2734 65.7001 57.1742 63.1334 60.47 59.8826C63.7657 56.6318 66.392 52.7605 68.1988 48.4898C70.0055 44.2191 70.9574 39.6326 71 34.9922C70.9574 30.3526 70.0054 25.7668 68.1985 21.497C66.3915 17.2271 63.765 13.3568 60.469 10.1073C57.173 6.8577 53.2721 4.29251 48.9892 2.55827C44.7062 0.824029 40.1252 -0.0452836 35.5078 7.84219e-07V7.84219e-07ZM41.066 44.3214L30.6016 53.8066C29.5695 54.7825 28.3457 55.5309 27.0089 56.0037C25.672 56.4766 24.2516 56.6634 22.8386 56.5523L21.7363 56.4587L19.78 55.8658L18.6311 55.2574C16.9215 54.282 15.5322 52.8268 14.6332 51.0701C13.7342 49.3133 13.3646 47.3312 13.5696 45.3666C13.8017 42.8672 14.9665 40.5486 16.8301 38.8768C20.5977 35.4238 24.3912 31.9813 28.2106 28.5491L28.459 28.3463C29.0414 31.8743 30.5714 35.1755 32.8839 37.8939C35.3218 40.4523 38.2329 42.5084 41.4542 43.947L41.066 44.3214ZM57.1354 26.7707C56.6597 28.7656 55.5737 30.5606 54.0302 31.9033L43.4726 41.4821C43.393 41.5824 43.2799 41.6503 43.1543 41.6732C43.0287 41.6962 42.8991 41.6726 42.7894 41.6069C39.2555 40.1034 36.1807 37.6866 33.8775 34.6022C33.4894 34.0718 33.1633 33.4789 32.8063 32.9173C32.7584 32.8267 32.7169 32.7329 32.682 32.6365L39.0477 26.9891L43.0068 23.4009C43.18 23.2788 43.3067 23.101 43.366 22.8968C43.4253 22.6926 43.4136 22.4743 43.3328 22.2777C43.2768 22.1037 43.1628 21.9545 43.0101 21.855C42.8575 21.7556 42.6753 21.712 42.4944 21.7317C42.1791 21.7936 41.8881 21.9452 41.656 22.1685L34.157 28.9548C33.4273 29.6412 32.682 30.312 31.8126 31.092C31.5176 29.9688 31.2692 28.9236 30.9742 27.8939C30.8477 27.5316 30.8446 27.1372 30.9654 26.7729C31.0863 26.4086 31.3242 26.095 31.6418 25.8814C34.747 23.1357 37.8522 20.3276 40.8797 17.5351C41.9111 16.5299 43.1536 15.7699 44.5158 15.3109C45.8781 14.8519 47.3254 14.7057 48.7514 14.883C50.1968 14.9999 51.5952 15.4542 52.835 16.2099C54.0749 16.9655 55.1221 18.0016 55.8933 19.2356C56.6105 20.3357 57.0915 21.574 57.3053 22.8715C57.5192 24.1689 57.4613 25.497 57.1354 26.7707V26.7707Z" fill="#EA7327"/>
</g>
<defs>
<clipPath id="clip0_737_373">
<rect width="71" height="70" fill="white"/>
</clipPath>
</defs>
</svg>
