<svg width="103" height="103" viewBox="0 0 103 103" fill="none" xmlns="http://www.w3.org/2000/svg">
<g clip-path="url(#clip0_736_284)">
<path d="M52.5082 0C53.8745 0.651964 55.0288 1.50754 55.3107 3.11791C55.7613 5.72371 53.9794 7.77626 51.1481 7.81534C47.5144 7.8503 43.9198 8.22667 40.4362 9.24267C24.2572 13.9545 13.5165 24.3674 9.25926 40.6542C5.34979 55.6103 8.87243 69.1658 19.1872 80.7715C26.0453 88.4882 34.6955 93.1856 44.8909 94.6417C58.4835 96.5853 70.5658 92.9964 80.8313 83.7722C88.4794 76.8968 93.0473 68.2958 94.6934 58.1687C95.035 56.0648 95.0638 53.9053 95.177 51.7684C95.3086 49.2408 96.9506 47.5275 99.2469 47.6057C101.391 47.6797 102.99 49.3251 103 51.5134C103.031 58.5986 101.691 65.4288 98.7716 71.8744C91.8621 87.1451 80.3704 97.3915 64.0638 101.305C43.7778 106.175 26.4095 100.439 12.4444 84.9322C5.71399 77.4603 1.9177 68.5014 0.45679 58.5595C0.277778 57.342 0.150206 56.1183 0 54.8966V48.0602C0.063786 47.7723 0.150206 47.4864 0.187243 47.1944C0.411523 45.44 0.534979 43.6631 0.878601 41.9314C3.40398 29.18 9.78944 18.7883 20.035 10.7564C26.5781 5.59676 34.3187 2.17213 42.5391 0.800044C44.3786 0.48743 46.2428 0.263254 48.0823 0H52.5082Z" fill="#235091"/>
<path d="M48.2645 60.6224C48.4702 60.2748 48.6245 59.8676 48.9023 59.5941C63.938 44.5749 78.9812 29.564 94.032 14.5613C95.2377 13.3561 96.5484 12.5745 98.3344 13.0681C98.9592 13.2345 99.5324 13.5546 100.002 13.9993C100.471 14.444 100.821 14.9991 101.02 15.614C101.22 16.2288 101.262 16.8837 101.143 17.519C101.023 18.1542 100.747 18.7495 100.339 19.2505C100.08 19.5574 99.805 19.8505 99.5155 20.1287L51.3077 68.1971C48.8282 70.6651 46.7295 70.6158 44.3797 68.0614C38.4352 61.5993 32.4661 55.162 26.5443 48.6793C25.7706 47.832 24.9826 46.8695 24.6143 45.8144C24.0175 44.1115 24.9291 42.3057 26.4661 41.4687C28.0484 40.609 29.8982 40.8866 31.2377 42.2913C32.9064 44.0333 34.5175 45.8309 36.1533 47.6058C39.9462 51.7191 43.7377 55.8324 47.5278 59.9458C47.6545 60.1035 47.7681 60.2713 47.8673 60.4476L48.2645 60.6224Z" fill="#235091"/>
</g>
<defs>
<clipPath id="clip0_736_284">
<rect width="103" height="103" fill="white"/>
</clipPath>
</defs>
</svg>
