<svg width="61" height="46" viewBox="0 0 61 46" fill="none" xmlns="http://www.w3.org/2000/svg">
<path d="M10.0056 45.4142C8.94441 45.4142 7.92652 44.9796 7.17582 44.2062C6.42551 43.4323 6.00391 42.3831 6.00391 41.2892C6.00391 40.1954 6.42551 39.1462 7.17582 38.3723C7.92657 37.5989 8.94443 37.1643 10.0056 37.1643C11.0667 37.1643 12.0846 37.5989 12.8353 38.3723C13.5856 39.1462 14.0072 40.1954 14.0072 41.2892C14.0072 42.3831 13.5856 43.4323 12.8353 44.2062C12.0845 44.9796 11.0667 45.4142 10.0056 45.4142Z" fill="white"/>
<path d="M50.027 45.4142C48.9659 45.4142 47.948 44.9796 47.1973 44.2062C46.447 43.4323 46.0254 42.3831 46.0254 41.2892C46.0254 40.1954 46.447 39.1462 47.1973 38.3723C47.9481 37.5989 48.9659 37.1643 50.027 37.1643C51.0882 37.1643 52.1061 37.5989 52.8568 38.3723C53.6071 39.1462 54.0287 40.1954 54.0287 41.2892C54.0287 42.3831 53.6071 43.4323 52.8568 44.2062C52.106 44.9796 51.0882 45.4142 50.027 45.4142Z" fill="white"/>
<path d="M56.0319 12.4113V16.5369H20.0114V14.4741C20.0114 12.8326 19.3789 11.2589 18.2532 10.098C17.1271 8.93771 15.6004 8.28573 14.008 8.28573H6.00341C5.31999 8.29263 4.64321 8.42109 4.00228 8.66514C4.00228 8.66514 4.00228 0.594458 4.00228 0.310839C3.22745 0.310731 0 0.310839 0 0.310839V26.8508C0 27.3978 0.21084 27.9227 0.586048 28.3095C0.961255 28.6963 1.47048 28.9136 2.00114 28.9136H8.00455V35.4814C9.29363 34.9754 10.7178 34.9754 12.0068 35.4814V28.9136H48.0273V35.4814C49.3164 34.9754 50.7405 34.9754 52.0296 35.4814V28.9136H58.033C58.5637 28.9136 59.0729 28.6963 59.4481 28.3095C59.8233 27.9227 60.0341 27.3978 60.0341 26.8508V12.4113C60.0341 12.3208 56.0319 12.3208 56.0319 12.4113ZM16.0091 16.5369H4.00228V14.4741C4.00228 13.9271 4.21312 13.4022 4.58832 13.0154C4.96353 12.6286 5.47276 12.4113 6.00341 12.4113H14.008C14.5386 12.4113 15.0478 12.6286 15.4231 13.0154C15.7983 13.4022 16.0091 13.9271 16.0091 14.4741V16.5369Z" fill="white"/>
</svg>
