<svg width="44" height="44" viewBox="0 0 44 44" fill="none" xmlns="http://www.w3.org/2000/svg">
<circle cx="22.1696" cy="21.8786" r="21.1755" fill="#235091"/>
<g clip-path="url(#clip0_1003_45)">
<path d="M23.0069 28.9389C23.0069 29.2586 22.9981 29.5646 23.015 29.8643C23.015 29.9182 23.1238 29.9951 23.1932 30.0108C23.4167 30.0502 23.6201 30.1645 23.7701 30.3349C23.9201 30.5052 24.0078 30.7215 24.0187 30.9483C24.0297 31.175 23.9633 31.3988 23.8305 31.5828C23.6977 31.7669 23.5063 31.9003 23.2877 31.9612C23.2357 31.9779 23.1816 31.987 23.127 31.9881C22.3765 31.9881 21.626 32.0207 20.8824 31.9812C20.237 31.9481 19.8349 31.2704 20.0563 30.664C20.1814 30.3168 20.4315 30.0859 20.7986 30.0239C20.9625 29.9964 21.0019 29.9338 20.9969 29.7824C20.9869 29.5102 20.9937 29.2373 20.9937 28.942C19.8558 28.7688 18.777 28.3217 17.8499 27.6392L17.1069 28.3832C17.1817 28.5019 17.2467 28.6264 17.3014 28.7555C17.3717 28.9641 17.371 29.19 17.2995 29.3982C17.228 29.6063 17.0897 29.785 16.9062 29.9063C16.5272 30.1566 16.0225 30.1359 15.6942 29.8224C15.1814 29.3318 14.6796 28.8296 14.1889 28.3156C13.8455 27.9546 13.853 27.3845 14.172 27.0097C14.3293 26.8222 14.5498 26.6989 14.7917 26.6631C15.0337 26.6272 15.2805 26.6813 15.4853 26.8151C15.5372 26.8483 15.586 26.8864 15.6204 26.9108L16.3709 26.1599C15.6891 25.2317 15.2425 24.1519 15.0694 23.0131C14.7567 23.0131 14.4578 23.0056 14.1626 23.02C14.1264 23.0279 14.0927 23.0447 14.0646 23.0689C14.0365 23.093 14.0147 23.1237 14.0013 23.1583C13.868 23.7083 13.4384 24.0587 12.9381 24.0105C12.4059 23.9605 12.0225 23.5531 12.0106 22.9874C11.9965 22.3321 11.9965 21.6765 12.0106 21.0207C12.0225 20.4575 12.409 20.0477 12.94 19.9995C13.4447 19.9532 13.8699 20.3011 14.0031 20.853C14.0163 20.8875 14.0377 20.9181 14.0656 20.9424C14.0934 20.9666 14.1267 20.9836 14.1626 20.9919C14.4578 21.0057 14.7542 20.9982 15.0682 20.9982C15.2415 19.8552 15.6911 18.7717 16.3777 17.8419L15.6273 17.1011C15.3684 17.2888 15.0675 17.4221 14.7004 17.3263C13.9775 17.1386 13.6754 16.2626 14.1776 15.7132C14.6654 15.1781 15.1895 14.6707 15.7136 14.1726C16.0644 13.8416 16.6329 13.8597 17.0006 14.1726C17.1807 14.3253 17.301 14.5368 17.3402 14.7698C17.3795 15.0027 17.3352 15.242 17.2151 15.4453C17.1764 15.5117 17.1288 15.5705 17.0963 15.6205L17.8418 16.3714C18.7714 15.6893 19.853 15.2437 20.9931 15.073C20.9931 14.7533 20.9994 14.4435 20.9862 14.1344C20.9862 14.0869 20.8999 14.0155 20.843 14.0024C20.3002 13.8772 19.9462 13.4392 19.9956 12.9336C20.0475 12.403 20.4559 12.0219 21.0219 12.01C21.6692 11.9962 22.319 12 22.9644 12.0094C23.5428 12.0194 23.965 12.4042 24.0025 12.948C24.0407 13.5155 23.5979 13.9636 23.1457 14.0086C23.1134 14.0189 23.0842 14.0372 23.0609 14.0618C23.0376 14.0864 23.021 14.1166 23.0125 14.1494C23 14.4517 23.0063 14.7551 23.0063 15.0749C24.1518 15.2484 25.2375 15.6995 26.1689 16.389L26.9118 15.6431C26.7067 15.3709 26.5804 15.0674 26.6767 14.7001C26.8643 13.9892 27.7286 13.6814 28.2733 14.1713C28.818 14.6613 29.3283 15.1907 29.8305 15.725C30.1601 16.0705 30.1363 16.6418 29.8236 17.0059C29.6675 17.1883 29.451 17.3084 29.2137 17.3443C28.9764 17.3803 28.7341 17.3297 28.531 17.2018C28.4728 17.1649 28.4171 17.123 28.3646 17.0873L27.6248 17.8382C28.3103 18.7693 28.7575 19.8543 28.9275 20.9982C29.2452 20.9982 29.5478 21.0057 29.8493 20.9913C29.9031 20.9913 29.985 20.9018 29.9988 20.8411C30.1176 20.323 30.5341 19.9745 31.0263 19.9976C31.2791 20.0051 31.5195 20.1095 31.6976 20.2891C31.8758 20.4688 31.9782 20.7101 31.9837 20.9631C32.0075 21.6571 32.0075 22.3529 31.9837 23.0469C31.9787 23.3004 31.8764 23.5422 31.6981 23.7223C31.5197 23.9024 31.2789 24.0069 31.0256 24.0143C30.5335 24.038 30.1182 23.6901 29.9969 23.1714C29.9822 23.1343 29.9589 23.1013 29.9288 23.0751C29.8988 23.0488 29.863 23.0301 29.8243 23.0206C29.5366 23.0049 29.2483 23.0137 28.9325 23.0137C28.7411 24.1707 28.3202 25.2307 27.6354 26.1518L28.389 26.9027C28.6423 26.71 28.9462 26.5898 29.3139 26.6868C30.0213 26.8745 30.3208 27.7462 29.8293 28.2893C29.3377 28.8325 28.823 29.3331 28.2933 29.8337C27.9318 30.1747 27.3552 30.1534 26.9887 29.8293C26.8066 29.6726 26.6873 29.4553 26.6528 29.2174C26.6184 28.9796 26.671 28.7373 26.8011 28.5353C26.8343 28.4827 26.873 28.4345 26.9343 28.3475C26.8093 28.2293 26.6779 28.111 26.5528 27.9865C26.4278 27.862 26.3171 27.7362 26.1939 27.611C25.2557 28.3072 24.1616 28.763 23.0069 28.9389Z" fill="white"/>
</g>
<defs>
<clipPath id="clip0_1003_45">
<rect width="20" height="20" fill="white" transform="translate(12 12)"/>
</clipPath>
</defs>
</svg>
