<svg width="118" height="118" viewBox="0 0 118 118" fill="none" xmlns="http://www.w3.org/2000/svg">
<path d="M54.9052 0.159485H63.6019C64.8735 0.330636 66.1482 0.489561 67.4168 0.675994C75.9759 1.92295 83.942 4.78361 91.1408 9.58501C105.141 18.9219 113.804 31.8468 116.919 48.421C117.304 50.4687 117.53 52.5439 117.836 54.6068V62.8435C117.588 64.6772 117.402 66.5355 117.084 68.3631C114.773 81.5539 108.831 92.853 98.8837 101.82C84.0551 115.179 66.6373 119.913 47.1073 116.007C33.104 113.205 21.6684 105.857 12.9381 94.5522C2.89948 81.557 -0.869581 66.7861 1.22129 50.5451C2.32035 41.9015 5.45371 33.6416 10.3642 26.4434C19.6814 12.6902 32.4926 4.18459 48.8435 1.07636C50.8519 0.700444 52.8847 0.465111 54.9052 0.159485ZM81.0808 32.5314C82.2454 31.3395 83.4009 30.1262 84.59 28.9464C85.5071 28.0296 86.6289 27.62 87.925 27.9715C90.5783 28.6867 91.4404 31.7185 89.536 33.757C88.3469 35.0315 87.0569 36.202 85.8311 37.4245C86.5617 38.4361 87.2097 39.2827 87.7997 40.1752C88.3897 41.0676 88.9643 42.0364 89.5574 42.9961C91.1653 42.3482 92.7089 41.7155 94.2618 41.1043C95.6129 40.5725 96.8876 40.71 97.9973 41.6911C99.9353 43.4056 99.3667 46.4099 96.8876 47.498C95.3317 48.1765 93.7452 48.7877 92.2351 49.4051C92.6631 51.5445 93.0635 53.528 93.4762 55.5696C95.2675 55.5696 97.0191 55.5696 98.7676 55.5696C100.421 55.5879 101.733 56.4865 102.231 57.8954C103.032 60.1601 101.488 62.3698 98.9418 62.4798C97.1077 62.5623 95.2889 62.4951 93.5159 62.4951C93.1063 64.4603 92.7762 66.3307 92.2932 68.1644C92.1006 68.9102 92.2932 69.1852 92.9504 69.4206C94.211 69.8475 95.4459 70.3465 96.6492 70.9151C97.392 71.2743 98.0441 71.7967 98.5567 72.4432C99.3912 73.5679 99.2261 75.1572 98.3732 76.2819C97.9742 76.8428 97.4065 77.2618 96.7528 77.4778C96.0991 77.6938 95.3935 77.6956 94.7387 77.483C92.9504 76.8717 91.205 76.1474 89.484 75.4873C88.2613 77.321 87.0661 79.0723 85.9839 80.6829C90.0067 84.7202 94.0081 88.7392 98.1379 92.8805C109.61 79.0234 113.896 63.2347 109.188 45.7895C103.649 25.2698 89.9578 12.4273 69.1317 8.10577C52.6921 4.67053 37.9215 9.096 25.1807 19.8143C29.4602 24.0931 33.593 28.216 37.7136 32.345L43.2159 28.6775C42.6046 27.1677 41.9932 25.661 41.3818 24.1451C40.584 22.0974 41.3482 20.1352 43.2159 19.3895C45.0836 18.6438 46.9452 19.5454 47.8012 21.5931C48.4309 23.0968 49.0422 24.6096 49.6597 26.1041L55.7734 24.9183C55.7734 23.0845 55.7734 21.2508 55.7734 19.417C55.7734 17.1462 57.2406 15.5539 59.2551 15.5967C61.2695 15.6395 62.6757 17.1982 62.6818 19.414C62.6818 21.2722 62.6818 23.1304 62.6818 24.9152L69.1531 26.208C69.1928 26.1775 69.2387 26.1622 69.2509 26.1316C69.8378 24.6891 70.4155 23.2404 71.0086 21.8009C71.8828 19.6921 73.7994 18.7874 75.6886 19.579C77.5777 20.3706 78.2471 22.293 77.4401 24.3651C76.9296 25.6762 76.3672 26.969 75.9117 28.2955C75.8689 28.467 75.8689 28.6464 75.9115 28.8179C75.9542 28.9895 76.0382 29.148 76.1562 29.2796C77.7091 30.3615 79.317 31.3792 81.0808 32.5314ZM24.9422 55.7132C25.4099 53.5922 25.7981 51.6973 26.2536 49.8177C26.4003 49.2064 26.2536 48.9191 25.682 48.7083C24.4317 48.2498 23.1998 47.7486 21.9679 47.2443C19.8496 46.3763 18.9295 44.4662 19.7028 42.5835C20.4762 40.7008 22.4265 40.0071 24.5724 40.8445C26.1008 41.4343 27.5956 42.0334 29.0689 42.611L32.4712 37.5743L20.0635 25.1934C3.95103 42.9258 1.88156 74.5581 22.8483 95.3713C43.9221 116.279 75.4257 113.752 92.8007 97.8927L80.7812 85.8724L75.5113 89.381C75.4972 89.4558 75.4972 89.5325 75.5113 89.6072C76.0921 91.0528 76.6912 92.4923 77.2628 93.9379C78.0698 95.9795 77.324 97.9905 75.496 98.7363C73.616 99.5034 71.7605 98.6507 70.8863 96.5969C70.2474 95.0993 69.636 93.5895 69.0216 92.1011C67.0775 92.4495 65.2098 92.7551 63.3604 93.1464C63.1372 93.1922 62.8805 93.6873 62.8682 93.9838C62.8102 95.2368 62.8682 96.4991 62.8285 97.7552C62.8216 98.4005 62.7185 99.0412 62.5228 99.6562C62.252 100.374 61.7438 100.977 61.0827 101.366C60.4216 101.756 59.6473 101.907 58.8883 101.796C58.0458 101.689 57.2718 101.277 56.7133 100.638C56.1548 99.9981 55.8508 99.1757 55.8589 98.3267C55.81 96.6549 55.8589 94.9832 55.8589 93.3206L49.3051 92.0247C48.651 93.6323 48.064 95.2093 47.4007 96.7375C46.6793 98.394 45.1112 99.2283 43.5461 98.8768C41.3757 98.3787 40.2172 96.334 40.9814 94.2435C41.5928 92.5809 42.2775 90.9489 42.9011 89.3719L37.4905 85.7349C37.4144 85.768 37.3426 85.8101 37.2765 85.8602C36.1944 86.933 35.1215 88.0149 34.0363 89.0846C32.4253 90.6738 30.2825 90.7747 28.8611 89.3413C27.4397 87.9079 27.5497 85.7869 29.1668 84.1701C30.2947 83.0454 31.4594 81.9543 32.5874 80.8693C31.2729 78.8889 30.0624 77.0612 28.8122 75.1816C27.3877 75.7623 25.951 76.3552 24.5082 76.9329C22.295 77.8253 20.2989 77.1437 19.5133 75.2366C18.7277 73.3295 19.6662 71.4346 21.8732 70.533L26.2047 68.7604L25.0003 62.599C23.3221 62.599 21.5644 62.7243 19.8404 62.547C18.836 62.4352 17.883 62.0445 17.0893 61.4193C16.0408 60.5543 15.894 59.2279 16.3556 57.9504C16.8172 56.6729 17.7648 55.811 19.1496 55.7438C21.1029 55.6429 23.0439 55.7132 24.9422 55.7132ZM80.7476 75.5453C88.6739 66.2329 89.3831 49.6649 78.1982 38.9527C67.0133 28.2404 50.7907 29.9031 42.4578 37.2625L80.7476 75.5453ZM75.6488 80.6187L37.3743 42.3604C29.8576 51.8348 29.5336 67.2781 39.4621 77.648C49.3907 88.0179 65.2128 88.6292 75.6396 80.6187H75.6488Z" fill="#235091"/>
</svg>
