<svg width="129" height="107" viewBox="0 0 129 107" fill="none" xmlns="http://www.w3.org/2000/svg">
<path d="M0.277344 52.1728C1.20659 50.0516 2.7863 49.1812 5.06294 49.3653C6.30193 49.4714 7.5688 49.384 8.74275 49.384C2.046 31.2007 5.70722 16.2086 22.003 5.02533C37.8002 -3.31922 51.8782 -0.589696 64.5593 11.5762C77.9311 -3.39721 98.2257 -1.46002 108.729 6.0953C115.544 11.0022 120.27 17.3721 122.395 25.5482C124.52 33.7243 123.634 41.6197 119.976 49.384C121.714 49.384 123.284 49.384 124.858 49.384C127.103 49.4027 128.723 50.9656 128.742 53.1274C128.764 55.3453 127.138 56.9549 124.833 56.9643C121.782 56.9643 118.728 56.9393 115.677 56.9986C115.122 57.0255 114.594 57.2461 114.184 57.6225C98.6965 73.1761 83.2329 88.7443 67.793 104.327C65.4606 106.676 63.5619 106.673 61.2233 104.327C45.7669 88.7547 30.3043 73.1855 14.8355 57.6194C14.4229 57.2423 13.8928 57.0217 13.3363 56.9955C10.5765 56.9362 7.8135 56.8707 5.05985 56.9955C2.7832 57.1078 1.20659 56.303 0.277344 54.188V52.1728ZM64.1938 57.7223C64.5562 57.1234 64.8132 56.7397 65.0239 56.3466C68.7594 49.7875 72.494 43.2252 76.2274 36.6597C78.0859 33.3999 81.3507 33.3282 83.3516 36.5038C85.8575 40.478 88.3696 44.4521 90.8413 48.4482C91.2564 49.1189 91.6808 49.4246 92.5171 49.4183C98.3672 49.3726 104.219 49.3726 110.074 49.4183C110.418 49.4458 110.763 49.3683 111.064 49.1958C111.364 49.0234 111.606 48.764 111.759 48.4513C115.352 42.646 116.656 36.4071 115.503 29.6254C112.205 10.3159 89.3669 1.34125 74.0282 13.4042C71.8012 15.1542 69.8621 17.2879 67.8333 19.2812C65.473 21.5896 63.5681 21.6146 61.2635 19.3062C59.9316 17.968 58.6338 16.5923 57.2554 15.3039C50.7724 9.22723 43.1464 6.86269 34.4177 8.44113C16.2108 11.6916 7.15994 32.9757 17.3135 48.5199C17.7688 49.2187 18.2427 49.4183 19.0419 49.4121C22.8858 49.3715 26.7329 49.3528 30.58 49.4121C31.568 49.4277 32.0327 49.1313 32.4106 48.2049C35.3036 41.1455 38.2524 34.1049 41.2012 27.0674C41.436 26.4393 41.7685 25.8528 42.1862 25.3299C43.9796 23.2897 47.1143 23.8045 48.4307 26.3749C50.6485 30.7078 52.8105 35.0688 54.9974 39.4142L64.1938 57.7223ZM79.9909 45.466C79.6997 45.9526 79.486 46.2957 79.2847 46.6514C75.4438 53.3977 71.6019 60.1441 67.7589 66.8904C67.4546 67.4882 67.0734 68.043 66.6253 68.5406C64.6925 70.4747 61.7839 69.8196 60.4303 67.1493C55.5921 57.5622 50.7621 47.9719 45.9403 38.3786C45.7483 37.998 45.5284 37.633 45.2403 37.1121C44.9894 37.686 44.8159 38.0479 44.658 38.4441C42.4897 43.6307 40.3215 48.8173 38.1533 54.0039C37.1869 56.3217 36.2205 56.9705 33.7673 56.9705C31.2583 56.9705 28.7493 56.9705 26.2404 56.9705C25.8935 56.9705 25.5466 57.0204 25.3452 57.0329L64.3734 96.3381L103.507 56.9705C99.0156 56.9705 94.2981 56.9705 89.5683 56.9705C88.8562 57.0084 88.1476 56.8464 87.5214 56.5028C86.8953 56.1591 86.3761 55.6472 86.0217 55.024C85.7584 54.5935 85.4858 54.1724 85.2163 53.745L79.9909 45.466Z" fill="#235091"/>
</svg>
