<svg width="99" height="99" viewBox="0 0 99 99" fill="none" xmlns="http://www.w3.org/2000/svg">
<path d="M98.2699 29.1266C97.9898 30.5158 97.7764 31.9222 97.4163 33.2905C96.2783 37.6673 93.9804 41.6558 90.7649 44.8352C75.4411 60.176 60.1077 75.5066 44.7649 90.827C39.2566 96.3154 32.527 98.7356 24.7743 98.3373C13.7368 97.7656 3.69772 89.1672 1.48756 78.2876C-0.383464 69.0793 1.94292 61.003 8.57914 54.3331C23.7581 39.0711 38.9727 23.8466 54.2229 8.65951C58.4603 4.42317 63.5303 1.8524 69.5111 1.15111C69.6579 1.11228 69.7985 1.0526 69.9284 0.973877L75.0727 0.973877C75.6881 1.09394 76.3035 1.21399 76.919 1.33786C87.3963 3.45127 94.1945 9.65047 97.3401 19.8402C97.7745 21.2466 97.967 22.7273 98.2699 24.1737V29.1266ZM60.499 65.5652L33.8112 38.8971C33.6797 39.0133 33.5064 39.1486 33.352 39.303C26.6301 46.0148 19.8586 52.6866 13.2091 59.4785C8.37146 64.418 6.78433 70.3942 8.30287 77.1328C10.231 85.695 18.582 91.9743 27.3198 91.494C32.3003 91.2196 36.5555 89.3139 40.0854 85.777C46.613 79.2214 53.1546 72.6785 59.7102 66.1484C59.9582 65.9346 60.2219 65.7397 60.499 65.5652ZM38.7784 33.9118L65.3232 60.4523C65.4174 60.3913 65.5071 60.3238 65.5919 60.2503C72.5558 53.2774 79.6207 46.4036 86.4436 39.2877C90.8563 34.6912 92.312 28.9646 90.9573 22.7597C89.4102 15.6743 85.0375 10.8301 78.0964 8.70525C71.1268 6.57279 64.7592 8.08971 59.512 13.1855C52.6014 19.8935 45.8623 26.7769 39.0489 33.5859C38.9689 33.6831 38.8851 33.7841 38.7784 33.9118Z" fill="#235091"/>
<path d="M72.3108 11.978C77.0341 12.0981 81.2258 14.2077 84.3486 18.3849C85.6175 20.0829 85.3756 22.1963 83.8342 23.3702C82.2375 24.5918 80.1722 24.2392 78.8327 22.5146C75.4032 18.1029 69.9863 17.6189 65.808 21.354C64.2704 22.7299 62.2165 22.7109 60.8713 21.3102C59.4919 19.8714 59.5738 17.8056 61.1152 16.323C64.1027 13.4492 67.6809 12.0123 72.3108 11.978Z" fill="#235091"/>
</svg>
