<svg width="100" height="104" viewBox="0 0 100 104" fill="none" xmlns="http://www.w3.org/2000/svg">
<g clip-path="url(#clip0_987_1379)">
<path d="M55.0284 0.327026C57.1952 0.864072 59.3523 1.43361 61.5267 1.93434C73.1531 4.62403 84.782 7.3048 96.4134 9.97665C98.442 10.4449 99.2653 11.5285 99.2653 13.6194C99.2653 24.9833 99.2653 36.3467 99.2653 47.7094C99.2323 59.5647 95.4957 71.1161 88.5736 80.7614C81.6515 90.4067 71.887 97.668 60.6343 101.538C58.9877 102.112 57.2911 102.524 55.6445 103.067C54.2838 103.518 52.9672 103.285 51.6929 102.859C48.7067 101.859 45.7262 100.841 42.786 99.7149C40.7882 98.9504 40.0416 97.1003 40.8342 95.3363C41.6019 93.6315 43.4117 93.0582 45.3539 93.7787C47.9908 94.7553 50.6566 95.6574 53.3261 96.5461C53.7711 96.6824 54.2459 96.689 54.6945 96.5652C74.8036 90.6902 87.2993 77.6348 91.769 57.1946C92.5213 53.7545 92.719 50.1576 92.7651 46.6257C92.8937 36.7735 92.8092 26.9175 92.8092 17.0614V15.7867L85.8273 14.1851C75.529 11.8209 65.2403 9.42622 54.9286 7.13661C53.8884 6.90536 52.6774 7.19777 51.5912 7.44623C39.7921 10.1353 28.0046 12.874 16.2055 15.5631C15.4801 15.7293 15.221 15.9453 15.2229 16.7098C15.2517 26.9997 15.2229 37.2914 15.2594 47.5813C15.2594 49.4199 15.4513 51.2604 15.6144 53.0932C15.8543 55.6485 14.5071 57.3494 12.2309 57.2672C10.7148 57.2137 9.36177 56.0517 9.20823 54.5438C9.01632 52.6804 8.80713 50.8074 8.80137 48.9363C8.76491 37.1041 8.78026 25.2719 8.78218 13.4397C8.78218 11.5285 9.70914 10.4143 11.6091 9.97665C25.2672 6.83337 38.9272 3.68691 52.5892 0.537258C52.7376 0.485026 52.8788 0.414394 53.0095 0.327026L55.0284 0.327026Z" fill="#235091"/>
<path d="M0.287075 77.9687C1.12575 76.3423 2.48069 75.7613 4.2636 75.9524C4.91277 75.9938 5.56379 75.9982 6.21347 75.9658L8.45123 70.6011C7.89275 70.085 7.13659 69.4314 6.43226 68.7281C5.11763 67.4113 5.06965 65.6415 6.28064 64.4375C7.49164 63.2334 9.26112 63.2907 10.5911 64.598C11.282 65.2803 11.9345 66.0027 12.5103 66.6009L17.8571 64.3744C17.8571 63.5602 17.8571 62.5377 17.8571 61.5076C17.8686 59.7244 19.0777 58.4707 20.7819 58.4707C22.4861 58.4707 23.701 59.7397 23.701 61.5171C23.701 62.5148 23.701 63.5124 23.701 64.3839L29.1341 66.6258C29.6254 66.0811 30.2607 65.309 30.965 64.6056C32.2835 63.2888 34.0606 63.241 35.2716 64.4451C36.4826 65.6491 36.4231 67.4036 35.1219 68.7376C34.4483 69.4257 33.719 70.085 33.1049 70.6584C33.861 72.453 34.5596 74.1176 35.3388 75.9658C36.1487 75.9658 37.1754 75.9658 38.2022 75.9658C39.9851 75.9753 41.2594 77.1908 41.2594 78.8765C41.2594 80.5622 39.9889 81.7815 38.208 81.7911C37.2062 81.7911 36.2043 81.7911 35.3292 81.7911L33.0857 87.194C33.6365 87.6871 34.4118 88.3197 35.1162 89.0231C36.4385 90.3456 36.4845 92.1096 35.2774 93.3137C34.0702 94.5177 32.3008 94.4604 30.9669 93.1684C30.2703 92.49 29.5909 91.7924 28.9825 91.1827L23.701 93.3863C23.701 94.1909 23.701 95.2115 23.701 96.234C23.701 98.0133 22.4765 99.2804 20.7838 99.2823C19.0911 99.2843 17.8628 98.0171 17.8513 96.2474C17.8513 95.2497 17.8513 94.2521 17.8513 93.3806L12.4143 91.1311C11.9249 91.6777 11.2935 92.4517 10.5892 93.1551C9.26879 94.4757 7.49356 94.5235 6.28256 93.3213C5.07157 92.1192 5.11955 90.3437 6.42842 89.0307C7.11356 88.3408 7.83517 87.6929 8.44355 87.1099C7.68548 85.3096 6.9869 83.6469 6.2058 81.793C5.55935 81.7588 4.91142 81.7632 4.26552 81.8064C2.47877 81.9975 1.13151 81.4031 0.285156 79.7901L0.287075 77.9687ZM12.5275 81.8274C13.5428 84.3616 15.2566 86.097 17.8206 87.0832C18.3311 85.6785 19.1851 84.7305 20.7416 84.7171C22.3383 84.7018 23.2192 85.6613 23.7374 87.0851C26.2995 86.0855 28.0287 84.3636 29.0171 81.8159C27.6122 81.3267 26.6929 80.4877 26.6392 78.9855C26.5797 77.3418 27.5854 76.4627 29.0171 75.9161C27.9999 73.378 26.2822 71.6426 23.7067 70.6679C23.2672 72.0364 22.4516 72.9155 21.0429 73.034C19.3156 73.1773 18.3561 72.1606 17.7976 70.6679C15.2432 71.7 13.4986 73.4067 12.5333 75.9486C13.9496 76.4397 14.8478 77.2654 14.9131 78.7294C14.986 80.3653 14.0283 81.2827 12.5275 81.8274Z" fill="#235091"/>
</g>
<defs>
<clipPath id="clip0_987_1379">
<rect width="98.9908" height="102.99" fill="white" transform="translate(0.285156 0.327026)"/>
</clipPath>
</defs>
</svg>
