<svg width="48" height="49" viewBox="0 0 48 49" fill="none" xmlns="http://www.w3.org/2000/svg">
<path d="M44.3453 3.7722L40.7612 0.1875L39.6943 1.2546L41.0573 2.61626L31.5779 12.0973L27.4899 8.00891L26.4234 9.07486L29.4747 12.1263L27.6084 13.993L27.5891 13.974L26.5229 15.0419L26.5411 15.0605L24.1099 17.4926L24.0909 17.474L23.0252 18.5415L23.0434 18.5597L20.6117 20.9918L20.5931 20.9728L19.5259 22.0391L19.5452 22.0585L17.1128 24.4906L17.0942 24.472L16.0277 25.5383L16.0466 25.5573L13.6142 27.9901L13.5953 27.9712L12.5291 29.0379L12.5477 29.0568L10.1157 31.4889L10.0971 31.4696L9.03097 32.5377L9.04917 32.5556L6.25045 35.3548L4.7092 36.8967L6.07328 38.2592L3.64382 40.6887L4.56173 41.6075L0 46.1697L0.977698 47.1476L1.95435 48.1255L6.51685 43.5621L7.43551 44.4817L9.86382 42.051L11.2271 43.4146L12.768 41.8738L35.9918 18.6458L39.0423 21.6984L40.1088 20.6303L36.0212 16.5411L45.4997 7.06076L46.8619 8.42319L47.9288 7.35723L44.3453 3.7722Z" fill="white"/>
</svg>
