<svg width="57" height="49" viewBox="0 0 57 49" fill="none" xmlns="http://www.w3.org/2000/svg">
<path d="M44.3453 3.8032L40.7612 0.218506L39.6943 1.2856L41.0573 2.64727L31.5779 12.1283L27.4899 8.03991L26.4234 9.10587L29.4747 12.1574L27.6084 14.024L27.5891 14.005L26.5229 15.0729L26.5411 15.0915L24.1099 17.5236L24.0909 17.505L23.0252 18.5725L23.0434 18.5907L20.6117 21.0228L20.5931 21.0038L19.5259 22.0701L19.5452 22.0895L17.1128 24.5216L17.0942 24.503L16.0277 25.5693L16.0466 25.5883L13.6142 28.0211L13.5953 28.0022L12.5291 29.0689L12.5477 29.0878L10.1157 31.5199L10.0971 31.5006L9.03097 32.5688L9.04917 32.5866L6.25045 35.3858L4.7092 36.9277L6.07328 38.2902L3.64382 40.7197L4.56173 41.6385L0 46.2007L0.977698 47.1786L1.95435 48.1565L6.51685 43.5931L7.43551 44.5127L9.86382 42.082L11.2271 43.4456L12.768 41.9048L35.9918 18.6768L39.0423 21.7294L40.1088 20.6613L36.0212 16.5721L45.4997 7.09177L46.8619 8.4542L47.9288 7.38824L44.3453 3.8032Z" fill="white"/>
<path d="M54.907 23.5224L52.888 21.5183L52.287 22.1149L53.0548 22.8762L47.7148 28.1768L45.4118 25.8911L44.811 26.487L46.5299 28.193L45.4786 29.2366L45.4677 29.226L44.8671 29.8231L44.8773 29.8334L43.5077 31.1932L43.497 31.1828L42.8967 31.7796L42.9069 31.7898L41.5371 33.1495L41.5266 33.1389L40.9254 33.7351L40.9363 33.7459L39.566 35.1056L39.5555 35.0952L38.9547 35.6914L38.9654 35.702L37.5952 37.0621L37.5845 37.0515L36.9839 37.6479L36.9943 37.6585L35.6243 39.0182L35.6138 39.0074L35.0132 39.6046L35.0235 39.6146L33.4469 41.1796L32.5786 42.0416L33.3471 42.8033L31.9785 44.1616L32.4956 44.6753L29.9258 47.2259L30.4766 47.7726L31.0267 48.3193L33.597 45.7681L34.1145 46.2822L35.4824 44.9233L36.2504 45.6856L37.1185 44.8242L50.2012 31.8379L51.9197 33.5446L52.5205 32.9474L50.2178 30.6612L55.5574 25.361L56.3248 26.1227L56.9258 25.5267L54.907 23.5224Z" fill="white"/>
</svg>
