<svg width="108" height="109" viewBox="0 0 108 109" fill="none" xmlns="http://www.w3.org/2000/svg">
<path d="M90.4208 108.263C88.9668 107.817 87.4419 107.528 86.0693 106.901C77.8728 103.155 74.7128 93.5683 78.9961 85.6503C79.0932 85.4692 79.1929 85.2934 79.4055 84.913L66.0701 71.7767C65.9494 71.6586 65.8077 71.5537 65.6922 71.4487C57.8395 76.6671 48.2258 76.1476 41.0975 70.5698L34.8747 75.9403C32.3394 78.1337 29.8145 80.3375 27.2635 82.4993C26.7622 82.927 26.5837 83.2523 26.8173 83.9764C29.7043 92.9202 22.8017 102.061 13.4452 101.725C10.1007 101.586 6.92256 100.229 4.51009 97.9088C2.09762 95.589 0.617451 92.4672 0.348654 89.1318C-0.155261 82.3288 4.66342 76.0348 11.3718 74.7886C14.6946 74.1342 18.142 74.7733 21.0092 76.5752C21.395 76.8114 21.7729 77.0554 22.2348 77.3492L36.3759 65.1023C32.384 57.5621 32.6438 50.2344 37.242 42.9041C35.4285 41.1122 33.5939 39.2599 31.6937 37.4785C31.4785 37.2765 30.8539 37.3683 30.4812 37.4995C27.4892 38.5489 24.6678 38.1816 21.933 36.6415C16.2298 33.4329 15.3244 24.922 20.2454 20.5983C25.5496 15.9388 33.258 17.45 36.3077 23.8332C37.3444 26.0003 37.62 28.33 36.8011 30.6545C36.4494 31.662 36.6489 32.2916 37.4179 33C39.1081 34.5742 40.7012 36.227 42.1001 37.6175C44.7036 36.6232 47.1051 35.4845 49.6299 34.8024C52.8931 33.9465 56.3344 34.0541 59.5376 35.112C60.4982 35.4137 60.9208 35.1697 61.3617 34.3249C62.3695 32.3756 63.4613 30.463 64.5951 28.5897C65.0728 27.8027 65.0439 27.3435 64.4036 26.6457C57.2674 18.8615 59.7843 6.667 69.406 2.29872C78.3426 -1.75998 89.0403 3.93059 90.6465 13.5959C92.027 21.9048 86.9537 29.4398 78.6995 31.2789C76.6159 31.7549 74.4498 31.7369 72.3743 31.2264C71.6893 31.0559 71.3245 31.1766 70.9754 31.8273C69.6894 34.2173 68.3378 36.5733 66.9887 38.9792C70.9256 42.4449 73.4242 46.6742 74.1328 51.8768C74.8414 57.0793 73.6866 61.8464 70.6605 66.4115L84.5103 79.9282C88.7096 77.567 93.1713 77.0239 97.7302 78.8132C103.181 80.9566 106.428 85.0206 107.404 90.8371C107.451 90.997 107.518 91.1504 107.604 91.2936V94.6361C107.519 94.823 107.452 95.017 107.402 95.2159C106.667 99.9803 104.252 103.69 100.095 106.064C98.2971 107.09 96.1581 107.542 94.1923 108.253L90.4208 108.263ZM53.9526 67.8597C57.4459 67.8646 60.7985 66.4844 63.2752 64.0218C65.752 61.5593 67.1507 58.2153 67.1646 54.7233C67.1646 47.4534 61.1281 41.4034 53.9106 41.4742C50.4425 41.5283 47.135 42.9449 44.7036 45.4176C42.2721 47.8903 40.9121 51.2204 40.9176 54.6876C40.9232 58.1549 42.2938 61.4806 44.7331 63.9456C47.1724 66.4106 50.4843 67.8166 53.9526 67.8597ZM67.5373 16.2641C67.5317 17.3297 67.7368 18.386 68.1408 19.3721C68.5448 20.3583 69.1396 21.255 69.8912 22.0107C70.6428 22.7664 71.5364 23.3663 72.5206 23.7758C73.5047 24.1854 74.5601 24.3966 75.6262 24.3972C80.0407 24.3631 83.7623 20.7242 83.6993 16.3271C83.6442 11.8302 80.3005 8.27264 75.5789 8.19393C71.1434 8.13884 67.5556 11.825 67.5373 16.2641ZM100.344 92.9989C100.328 91.4171 99.844 89.8755 98.9529 88.5682C98.0618 87.261 96.8035 86.2467 95.3366 85.6532C93.8697 85.0596 92.2599 84.9135 90.71 85.233C89.1602 85.5526 87.7396 86.3236 86.6274 87.4489C85.5152 88.5742 84.7611 90.0034 84.4601 91.5565C84.1592 93.1095 84.3248 94.7168 84.9362 96.1759C85.5476 97.635 86.5774 98.8805 87.8958 99.7555C89.2141 100.63 90.7621 101.096 92.3446 101.093C93.4019 101.088 94.4479 100.875 95.4227 100.465C96.3974 100.055 97.2817 99.4574 98.0248 98.7055C98.768 97.9536 99.3554 97.0625 99.7534 96.0833C100.151 95.104 100.352 94.0559 100.344 92.9989ZM13.9255 94.4839C15.178 94.4813 16.4016 94.1078 17.4419 93.4106C18.4822 92.7134 19.2926 91.7237 19.7707 90.5665C20.2488 89.4093 20.3732 88.1365 20.1282 86.9086C19.8832 85.6808 19.2798 84.553 18.3942 83.6677C17.5086 82.7824 16.3804 82.1792 15.1521 81.9343C13.9238 81.6894 12.6505 81.8138 11.4929 82.2917C10.3352 82.7697 9.34518 83.5797 8.64772 84.6197C7.95026 85.6596 7.57665 86.8828 7.57406 88.1348C7.56456 88.9712 7.72236 89.8011 8.03819 90.5757C8.35401 91.3503 8.8215 92.054 9.41318 92.6454C10.0049 93.2369 10.7088 93.7042 11.4837 94.0199C12.2586 94.3356 13.0888 94.4934 13.9255 94.4839ZM27.0614 25.0925C26.6774 25.0951 26.2977 25.1732 25.944 25.3225C25.5903 25.4718 25.2694 25.6892 24.9997 25.9624C24.4551 26.5142 24.1521 27.2597 24.1573 28.0348C24.1625 28.81 24.4756 29.5513 25.0276 30.0957C25.5796 30.6402 26.3253 30.9431 27.1007 30.9379C27.8752 30.9192 28.6127 30.6034 29.1605 30.0558C29.7083 29.5082 30.0242 28.771 30.0429 27.9968C30.0243 27.2192 29.7019 26.4797 29.1446 25.9369C28.5873 25.394 27.8395 25.0909 27.0614 25.0925Z" fill="#235091"/>
</svg>
