<svg width="44" height="44" viewBox="0 0 44 44" fill="none" xmlns="http://www.w3.org/2000/svg">
<circle cx="21.9226" cy="21.8786" r="21.1755" fill="#EA7327"/>
<path d="M11.8205 34.3445C11.2725 34.3445 10.7468 34.1311 10.3591 33.7514C9.97164 33.3714 9.75391 32.8563 9.75391 32.3192C9.75391 31.7822 9.97164 31.267 10.3591 30.8871C10.7468 30.5073 11.2725 30.2939 11.8205 30.2939C12.3685 30.2939 12.8942 30.5073 13.2819 30.8871C13.6693 31.267 13.8871 31.7822 13.8871 32.3192C13.8871 32.8563 13.6693 33.3715 13.2819 33.7514C12.8941 34.1311 12.3685 34.3445 11.8205 34.3445Z" fill="white"/>
<path d="M32.4885 34.3445C31.9404 34.3445 31.4148 34.1311 31.0271 33.7514C30.6396 33.3714 30.4219 32.8563 30.4219 32.3192C30.4219 31.7822 30.6396 31.267 31.0271 30.8871C31.4148 30.5073 31.9405 30.2939 32.4885 30.2939C33.0365 30.2939 33.5621 30.5073 33.9498 30.8871C34.3373 31.267 34.555 31.7822 34.555 32.3192C34.555 32.8563 34.3373 33.3715 33.9498 33.7514C33.5621 34.1311 33.0365 34.3445 32.4885 34.3445Z" fill="white"/>
<path d="M35.59 18.1407V20.1663H16.9879V19.1535C16.9879 18.3475 16.6612 17.5748 16.0799 17.0049C15.4983 16.4352 14.7099 16.1151 13.8875 16.1151H9.75368C9.40074 16.1184 9.05123 16.1815 8.72023 16.3013C8.72023 16.3013 8.72023 12.3387 8.72023 12.1995C8.32008 12.1994 6.65332 12.1995 6.65332 12.1995V25.2303C6.65332 25.4988 6.76221 25.7566 6.95597 25.9465C7.14974 26.1364 7.41273 26.2431 7.68677 26.2431H10.7871V29.4678C11.4529 29.2193 12.1883 29.2193 12.854 29.4678V26.2431H31.4562V29.4678C32.1219 29.2193 32.8574 29.2193 33.5231 29.4678V26.2431H36.6235C36.8975 26.2431 37.1605 26.1364 37.3543 25.9465C37.5481 25.7566 37.6569 25.4988 37.6569 25.2303V18.1407C37.6569 18.0962 35.59 18.0962 35.59 18.1407ZM14.921 20.1663H8.72023V19.1535C8.72023 18.8849 8.82911 18.6272 9.02288 18.4373C9.21665 18.2474 9.47963 18.1407 9.75368 18.1407H13.8875C14.1615 18.1407 14.4245 18.2474 14.6183 18.4373C14.8121 18.6272 14.921 18.8849 14.921 19.1535V20.1663Z" fill="white"/>
</svg>
