<svg width="104" height="104" viewBox="0 0 104 104" fill="none" xmlns="http://www.w3.org/2000/svg">
<g clip-path="url(#clip0_987_1372)">
<path d="M103.515 100.755C103.349 101.073 103.19 101.393 103.011 101.705C102.587 102.475 101.923 103.085 101.121 103.443C100.318 103.801 99.4202 103.887 98.564 103.688C97.6901 103.491 96.9087 103.003 96.3468 102.306C95.7848 101.608 95.4752 100.741 95.4684 99.8452C95.4482 95.654 95.4684 91.4629 95.4684 87.2693C95.4684 86.9089 95.4684 86.546 95.4684 86.0646C94.1625 86.0646 92.9323 86.0646 91.7021 86.0646C89.1686 86.0646 87.4166 84.3912 87.4166 82.0323C87.4166 79.6734 89.1812 78.0403 91.75 78.0327C92.95 78.0327 94.1499 78.0327 95.4079 78.0327V66.4397H8.58073V78.4208H71.0459C73.6576 78.4208 75.4121 80.185 75.3315 82.6699C75.2816 83.6474 74.8743 84.5725 74.1869 85.2695C73.4995 85.9664 72.58 86.3866 71.6031 86.4502C71.235 86.4679 70.867 86.4502 70.4964 86.4502H8.51015V87.602C8.51015 91.5587 8.51015 95.5163 8.51015 99.4747C8.51015 101.995 6.83628 103.759 4.46159 103.759C2.13481 103.764 0.460938 102.005 0.460938 99.5402C0.460938 73.5803 0.460938 47.6221 0.460938 21.6656C0.460938 19.2084 2.14994 17.4543 4.47672 17.4518C6.8035 17.4493 8.51015 19.2008 8.51015 21.653C8.51015 28.7953 8.51015 35.9359 8.51015 43.0748V44.1031C10.1613 43.5738 11.7142 42.9866 13.3175 42.5834C14.3916 42.3322 15.4916 42.2096 16.5947 42.2179C21.7272 42.1827 26.8597 42.1784 31.9923 42.2053C35.8315 42.2268 39.5357 43.6249 42.4311 46.1455C45.3266 48.666 47.2213 52.1417 47.7705 55.9405C47.8789 56.6966 47.952 57.4526 48.0478 58.2591H95.4658V57.2006C95.4658 53.0423 95.5314 48.8839 95.4381 44.7255C95.3852 42.3717 96.7263 40.6932 98.6674 40.2547C100.664 39.7985 102.418 40.8747 103.369 43.0899C103.392 43.1429 103.465 43.1706 103.515 43.2109V100.755ZM39.8549 58.2616C39.7516 53.7807 36.3963 50.3255 31.6721 50.2625C26.711 50.1969 21.7482 50.1969 16.7837 50.2625C12.0495 50.333 8.62611 53.7353 8.61351 58.2591L39.8549 58.2616Z" fill="#235091"/>
<path d="M103.515 19.8636C102.899 21.2019 102.113 22.3838 100.555 22.7241C100.067 22.8275 99.5691 22.8782 99.0702 22.8753C95.8939 22.8753 92.715 22.8753 89.4228 22.8753V24.6394C89.4228 27.4117 89.4404 30.2016 89.4228 32.9813C89.4198 34.0468 88.9935 35.0674 88.2378 35.8186C87.4821 36.5699 86.4588 36.9902 85.3931 36.9872C84.3274 36.9842 83.3065 36.5581 82.5551 35.8026C81.8036 35.0471 81.3831 34.0241 81.3862 32.9587C81.366 29.6446 81.3862 26.333 81.3862 22.8778H80.2593C77.3099 22.8778 74.3604 22.8778 71.411 22.8778C69.0439 22.8778 67.3019 21.1565 67.2969 18.8707C67.2918 16.5848 69.0287 14.8383 71.3858 14.8383C74.6629 14.8232 77.9401 14.8383 81.3836 14.8383V13.8302C81.3836 11.184 81.4895 8.53779 81.3534 5.89156C81.2198 3.42679 82.0718 1.69288 84.4062 0.747803H86.4229C88.7371 1.69036 89.6017 3.41923 89.4707 5.884C89.3371 8.38657 89.4404 10.9017 89.4404 13.4119V14.8358C92.7831 14.8358 95.9947 14.8358 99.1988 14.8358C99.6633 14.8368 100.126 14.8875 100.58 14.987C102.133 15.3398 102.915 16.5143 103.532 17.8475L103.515 19.8636Z" fill="#235091"/>
</g>
<defs>
<clipPath id="clip0_987_1372">
<rect width="103.054" height="103.054" fill="white" transform="translate(0.460938 0.747803)"/>
</clipPath>
</defs>
</svg>
