<svg width="100" height="100" viewBox="0 0 100 100" fill="none" xmlns="http://www.w3.org/2000/svg">
<g clip-path="url(#clip0_668_182)">
<path d="M52.9411 100H47.0721C46.7885 99.9415 46.5048 99.8754 46.2187 99.8314C43.4945 99.4082 40.7214 99.1807 38.0486 98.5398C12.406 92.3922 -4.12247 66.6033 0.897954 40.6406C2.98633 29.8451 8.02387 20.647 16.1402 13.2543C27.7143 2.70581 41.3963 -1.49939 56.8978 0.469887C66.7699 1.72484 75.4828 5.78081 82.9291 12.3712C91.7155 20.1357 97.2103 29.7937 99.2326 41.3794C99.5603 43.2582 99.7486 45.1614 100 47.0549V52.926C99.9418 53.2685 99.8684 53.6134 99.8244 53.9583C99.5799 55.7637 99.4454 57.5862 99.1079 59.3695C97.3146 69.1353 92.5878 78.1221 85.5579 85.1316C78.0897 92.6784 69.1126 97.4291 58.6291 99.237C56.7339 99.5648 54.8387 99.7458 52.9411 100ZM85.0248 76.7261C98.1591 59.8197 97.6016 33.9158 79.821 17.457C62.6029 1.51446 35.8281 1.97681 18.9915 18.6484C1.94214 35.5279 2.52415 60.8569 15.0079 76.7089C19.6754 66.4769 27.3075 59.4552 37.9043 55.6438C27.279 47.5148 27.2007 33.1036 35.3513 24.6932C43.1326 16.662 56.037 16.4687 64.3342 24.3923C72.4897 32.1764 73.2918 47.1967 62.1334 55.6561C72.7147 59.4674 80.3321 66.4565 85.0248 76.7261ZM50.887 94.1829C52.1635 94.0679 54.3105 93.9823 56.4331 93.6667C65.508 92.3188 73.3847 88.4463 80.1242 82.2278C80.4886 81.8951 80.6133 81.6236 80.4226 81.1514C75.9035 69.4092 67.4619 62.2268 55.1028 60.0276C46.6002 58.5133 38.6844 60.4875 31.5731 65.4095C25.8949 69.3505 21.9358 74.6418 19.6298 81.1563C19.5891 81.3259 19.5885 81.5026 19.628 81.6724C19.6675 81.8423 19.7459 82.0006 19.8572 82.1348C28.3672 90.0242 38.43 93.9921 50.887 94.1829ZM64.6546 39.0848C64.6599 36.1887 63.8069 33.3559 62.2034 30.9446C60.5999 28.5333 58.3178 26.6515 55.6456 25.5372C52.9734 24.4229 50.031 24.126 47.1901 24.684C44.3493 25.242 41.7376 26.6299 39.685 28.6723C37.6324 30.7147 36.2311 33.32 35.6581 36.1588C35.0851 38.9977 35.3662 41.9428 36.4658 44.6219C37.5654 47.301 39.4343 49.5939 41.8361 51.2108C44.238 52.8278 47.0651 53.6962 49.9601 53.7063C53.8461 53.707 57.5741 52.1676 60.3281 49.425C63.0821 46.6823 64.6378 42.9599 64.6546 39.0726V39.0848Z" fill="#235091"/>
</g>
<defs>
<clipPath id="clip0_668_182">
<rect width="100" height="100" fill="white"/>
</clipPath>
</defs>
</svg>
