<svg width="0" height="0" class="hidden">
  <symbol xmlns="http://www.w3.org/2000/svg" viewBox="0 0 43 23" id="ic_arr_ver">
    <path d="M0.875 1.49878L21.6467 21.5011L42.4183 1.49878" stroke="currentColor" stroke-width="1.53864" fill="none"></path>
  </symbol>
  <symbol xmlns="http://www.w3.org/2000/svg" viewBox="0 0 29 21" id="ic_check">
    <path d="M2 9L11 18L27 2" stroke="currentColor" stroke-width="3" fill="none"></path>
  </symbol>
  <symbol xmlns="http://www.w3.org/2000/svg" viewBox="0 0 35 35" id="ic_close">
    <line x1="1.41421" y1="1.58579" x2="33.4142" y2="33.5858" stroke="currentColor" stroke-width="4" fill="none"></line>
    <line x1="1.58579" y1="33.5858" x2="33.5858" y2="1.58579" stroke="currentColor" stroke-width="4" fill="none"></line>
  </symbol>
  <symbol xmlns="http://www.w3.org/2000/svg" viewBox="0 0 48 60" id="ic_pdf">
    <path d="M14.387 43.8734C14.065 43.5969 13.5903 43.4583 12.9629 43.4575H11.248V46.6197H12.957C13.5899 46.6197 14.0646 46.4834 14.381 46.2109C14.6975 45.9383 14.8557 45.5499 14.8557 45.0457C14.8636 44.543 14.7074 44.1522 14.387 43.8734Z" fill="currentColor"></path>
    <path d="M47.3722 15.6942C46.5668 14.8601 45.7646 14.0271 44.9655 13.1954C40.9306 8.99091 36.8933 4.78882 32.8537 0.589078C32.538 0.248591 32.214 0 31.6942 0C23.4195 0.0141379 15.1452 0.0188505 6.87121 0.0141379C6.63528 0.0139219 6.40018 0.0420085 6.17104 0.097787C2.45655 1.00968 0.00593369 4.09999 0 7.88658C0 15.2406 0 22.5951 0 29.9499C0 37.3629 0.00237348 44.777 0.00712043 52.1924C0.0142409 56.4549 3.57683 59.9906 7.87519 59.9953C18.6112 60.0071 29.3476 60.0071 40.0845 59.9953C40.6534 59.9939 41.2203 59.9259 41.7732 59.7926C45.5541 58.8737 47.9858 55.761 47.9869 51.8424C47.9933 40.3216 47.9968 28.8008 47.9976 17.28C48.0061 16.9875 47.9551 16.6963 47.8477 16.4239C47.7402 16.1514 47.5785 15.9032 47.3722 15.6942ZM17.3845 47.1593C16.9722 47.7716 16.3891 48.2514 15.7065 48.5401C14.9818 48.8645 14.1273 49.0263 13.1431 49.0255H11.2443V51.853H8.17188V41.0517H13.1431C14.1273 41.0517 14.9818 41.2135 15.7065 41.5371C16.2107 41.7734 16.6589 42.1128 17.0219 42.5329C17.3849 42.9531 17.6544 43.4447 17.8128 43.9754C17.9712 44.5061 18.0149 45.0641 17.9411 45.6127C17.8673 46.1614 17.6777 46.6884 17.3845 47.1593ZM29.9236 49.3035C29.408 50.125 28.663 50.78 27.7792 51.1886C26.8575 51.6316 25.8009 51.8526 24.6094 51.8519H19.4625V41.0517H24.6046C25.7961 41.0517 26.8527 41.2728 27.7744 41.715C28.6582 42.1236 29.4033 42.7786 29.9189 43.6001C30.426 44.4114 30.6796 45.3626 30.6796 46.4536C30.6796 47.5445 30.4276 48.4945 29.9236 49.3035ZM40.8297 43.4127H35.3767V45.7879H40.1782V48.1442H35.3767V51.846H32.3006V41.0517H40.8297V43.4127ZM42.3725 15.4009C40.4998 15.4009 38.6271 15.3585 36.7568 15.415C34.807 15.4739 33.0186 13.98 33.0708 11.7851C33.1195 9.73275 33.0803 7.67687 33.0827 5.62217C33.0827 5.49492 33.0993 5.36651 33.1171 5.10849L42.9481 15.3585C42.6988 15.3761 42.5351 15.3997 42.3666 15.3997L42.3725 15.4009Z" fill="currentColor"></path>
    <path d="M24.4868 43.488H22.5488V49.4118H24.4915C25.4235 49.4118 26.1715 49.1495 26.7356 48.6248C27.2997 48.1001 27.5822 47.3752 27.583 46.4499C27.583 45.5239 27.3005 44.7989 26.7356 44.275C26.1708 43.7512 25.4211 43.4888 24.4868 43.488Z" fill="currentColor"></path>
  </symbol>
  <symbol xmlns="http://www.w3.org/2000/svg" viewBox="0 0 33 33" id="ic_search">
    <path d="M12.2578 0H14.3232C14.3916 0.0245607 14.4614 0.0449704 14.5323 0.0611179C15.1648 0.16872 15.8068 0.233281 16.4255 0.383924C24.5191 2.3242 28.8495 11.2715 25.3341 18.814C24.9116 19.7213 24.353 20.5657 23.8126 21.5169C23.8902 21.5606 23.9627 21.6129 24.0286 21.6727C26.7486 24.3895 29.4677 27.1065 32.1859 29.8238C32.5301 30.1681 32.852 30.5176 33 30.9937V31.7021C32.8374 31.9741 32.7186 32.2866 32.5052 32.5104C31.8494 33.1991 30.8202 33.1509 30.0956 32.4312C27.2844 29.6238 24.4764 26.8155 21.6715 24.0064C21.5906 23.9255 21.5054 23.8497 21.4177 23.7671C21.3393 23.8256 21.28 23.8704 21.2197 23.9143C17.6484 26.4778 13.7259 27.2241 9.51604 25.9915C2.48351 23.9307 -1.55512 16.5827 0.564449 9.56194C2.08851 4.51498 5.55486 1.41776 10.714 0.258245C11.2225 0.144617 11.7432 0.0860815 12.2578 0ZM13.2698 23.242C18.7249 23.2894 23.23 18.8019 23.2601 13.2901C23.2911 7.8162 18.8196 3.33049 13.3077 3.30467C7.84999 3.28315 3.36387 7.73184 3.30879 13.2238C3.25285 18.6797 7.745 23.1981 13.2698 23.242Z" fill="currentColor"></path>
  </symbol>
  <symbol xmlns="http://www.w3.org/2000/svg" viewBox="0 0 43 48" id="ic_video_play">
    <path d="M41 20.5359C43.6667 22.0755 43.6667 25.9245 41 27.4641L6.49999 47.3827C3.83333 48.9223 0.499998 46.9978 0.499998 43.9186L0.5 4.08141C0.5 1.00221 3.83333 -0.922289 6.5 0.617312L41 20.5359Z" fill="currentColor"></path>
  </symbol>
</svg>