<svg width="0" height="0" class="hidden">
  <symbol xmlns="http://www.w3.org/2000/svg" viewBox="0 0 43 23" id="ic_arr_ver">
    <path d="M0.875 1.49878L21.6467 21.5011L42.4183 1.49878" stroke="currentColor" stroke-width="1.53864" fill="none"></path>
  </symbol>
  <symbol xmlns="http://www.w3.org/2000/svg" viewBox="0 0 29 21" id="ic_check">
    <path d="M2 9L11 18L27 2" stroke="currentColor" stroke-width="3" fill="none"></path>
  </symbol>
  <symbol xmlns="http://www.w3.org/2000/svg" viewBox="0 0 35 35" id="ic_close">
    <line x1="1.41421" y1="1.58579" x2="33.4142" y2="33.5858" stroke="currentColor" stroke-width="4" fill="none"></line>
    <line x1="1.58579" y1="33.5858" x2="33.5858" y2="1.58579" stroke="currentColor" stroke-width="4" fill="none"></line>
  </symbol>
  <symbol xmlns="http://www.w3.org/2000/svg" viewBox="0 0 67 65" id="ic_instagram">
    <path d="M0.959961 32.461C0.961709 14.4911 15.6151 0.0156353 33.7554 1.24242e-05C51.7576 -0.0156105 66.4914 14.7046 66.4041 32.6797C66.3149 50.5436 51.6632 65.0156 33.5264 65C15.547 64.9844 0.958213 50.4047 0.959961 32.461ZM53.8515 32.5113H53.9231C53.8497 29.201 53.9476 25.875 53.6557 22.5821C53.3341 18.968 51.6056 16.0465 48.304 14.2308C46.2573 13.1059 44.0132 12.6806 41.7043 12.6685C36.3445 12.6337 30.9799 12.6337 25.6107 12.6685C23.6183 12.6789 21.6625 13.0156 19.8343 13.8489C15.6012 15.7826 13.717 19.3186 13.5615 23.7104C13.371 29.142 13.4881 34.5839 13.5091 40.0277C13.5075 41.0992 13.6028 42.1688 13.794 43.2234C14.4931 46.9833 16.5083 49.7781 20.1314 51.29C21.9122 52.0074 23.8185 52.3667 25.7401 52.3472C30.6898 52.3715 35.6419 52.3715 40.5962 52.3472C41.7936 52.3579 42.9901 52.2796 44.1757 52.1128C48.2148 51.4827 51.2805 49.4986 52.8709 45.6207C53.5372 43.9698 53.8715 42.2054 53.8549 40.4269C53.8538 37.7872 53.8526 35.1458 53.8515 32.5026V32.5113Z" fill="currentColor"></path>
    <path d="M33.6174 48.6046C30.807 48.6046 27.9931 48.674 25.1844 48.5855C22.3075 48.4935 19.789 47.603 18.2876 44.9019C17.5882 43.6718 17.2142 42.2856 17.2005 40.873C17.169 35.2869 17.1009 29.6974 17.2197 24.1131C17.2879 20.9885 18.5568 18.3551 21.6975 17.1157C22.8112 16.6774 23.9954 16.4422 25.1931 16.4214C30.8385 16.3502 36.4838 16.3606 42.1292 16.4214C43.2185 16.4461 44.2974 16.6381 45.3276 16.9907C48.173 17.9333 49.5223 20.1292 50.0222 22.9327C50.1298 23.638 50.1771 24.3511 50.1637 25.0643C50.1742 30.1539 50.2039 35.2435 50.1427 40.3401C50.1334 41.5046 49.9393 42.6604 49.5677 43.7649C48.5663 46.6552 46.3763 48.2418 43.3631 48.464C40.1297 48.7035 36.8788 48.6948 33.6332 48.7955L33.6174 48.6046ZM33.7118 21.9519C31.6129 21.943 29.5584 22.5523 27.808 23.7027C26.0575 24.8532 24.6898 26.4932 23.8776 28.4154C23.0653 30.3377 22.8451 32.456 23.2446 34.5025C23.6442 36.5491 24.6456 38.4321 26.1223 39.9136C27.599 41.395 29.4848 42.4085 31.5413 42.8258C33.5978 43.2431 35.7327 43.0457 37.6762 42.2583C39.6197 41.4709 41.2846 40.129 42.4604 38.4022C43.6363 36.6753 44.2703 34.641 44.2824 32.5564C44.2929 26.6752 39.5949 21.9623 33.7171 21.9588L33.7118 21.9519ZM44.3401 24.0645C44.6181 24.0686 44.8941 24.0183 45.1525 23.9165C45.4109 23.8146 45.6466 23.6632 45.846 23.4709C46.0455 23.2786 46.2049 23.0492 46.315 22.7957C46.4252 22.5422 46.484 22.2696 46.4881 21.9935C46.4791 21.4361 46.2517 20.904 45.8543 20.5103C45.4569 20.1165 44.9206 19.8921 44.3593 19.8845C43.8094 19.8871 43.2825 20.1042 42.8922 20.489C42.5019 20.8737 42.2793 21.3953 42.2725 21.9415C42.2591 22.2187 42.303 22.4957 42.4015 22.7554C42.5 23.0151 42.651 23.252 42.8452 23.4516C43.0394 23.6511 43.2727 23.8091 43.5307 23.9157C43.7887 24.0223 44.0659 24.0753 44.3453 24.0714L44.3401 24.0645Z" fill="currentColor"></path>
    <path d="M33.6593 25.6512C37.424 25.6356 40.5735 28.7584 40.5718 32.5044C40.57 36.2505 37.4135 39.3768 33.654 39.3542C31.8375 39.3344 30.1009 38.6096 28.8154 37.3348C27.5298 36.06 26.7974 34.3363 26.7747 32.5322C26.738 28.8157 29.8805 25.6668 33.6593 25.6512Z" fill="currentColor"></path>
  </symbol>
  <symbol xmlns="http://www.w3.org/2000/svg" viewBox="0 0 78 78" id="ic_notice">
    <path d="M8.26962e-05 39.0168C-0.0438486 17.5282 17.4213 0.0484736 38.9842 -0.00032522C60.4617 -0.049124 77.9488 17.4135 78.0001 38.9802C78.0513 60.4638 60.596 77.9362 39.0208 77.9997C17.5555 78.0631 0.044014 60.5687 8.26962e-05 39.0168ZM6.06748 38.9899C6.06652 45.5006 7.99644 51.8655 11.6133 57.2798C15.2301 62.6942 20.3714 66.915 26.3874 69.4087C32.4033 71.9023 39.0237 72.5569 45.4117 71.2896C51.7997 70.0223 57.6685 66.8901 62.2761 62.2889C66.8837 57.6877 70.0233 51.824 71.2981 45.4393C72.5728 39.0545 71.9254 32.4352 69.4377 26.4182C66.9501 20.4012 62.7338 15.2566 57.3219 11.6348C51.9101 8.01296 45.5456 6.07652 39.033 6.07025C34.7038 6.05867 30.4148 6.902 26.4124 8.55182C22.41 10.2016 18.773 12.6255 15.71 15.6842C12.647 18.7429 10.2185 22.3762 8.56378 26.3756C6.90905 30.3751 6.06072 34.6619 6.06748 38.9899Z" fill="currentColor"></path>
    <path d="M42.0405 32.9685C42.0405 35.5573 42.0649 38.1436 42.0405 40.7299C42.0113 42.9625 40.4078 44.3288 38.3601 43.9336C36.9103 43.653 35.9853 42.4379 35.9707 40.708C35.9512 37.9704 35.9707 35.2303 35.9707 32.4903C35.9707 30.0503 35.9487 27.6104 35.9707 25.1851C35.9878 23.6699 36.7444 22.6183 38.033 22.1644C39.1752 21.7618 40.5615 22.0278 41.2303 23.0452C41.6964 23.7774 41.9639 24.6183 42.0064 25.4852C42.104 27.9739 42.0405 30.4724 42.0405 32.9685Z" fill="currentColor"></path>
    <path d="M43.0131 52.9467C43.0148 53.4735 42.9128 53.9954 42.7128 54.4828C42.5128 54.9701 42.2187 55.4133 41.8474 55.787C41.476 56.1608 41.0347 56.4577 40.5486 56.6609C40.0624 56.8641 39.541 56.9696 39.0141 56.9714C38.4872 56.9732 37.9651 56.8712 37.4776 56.6712C36.9901 56.4712 36.5468 56.1772 36.173 55.806C35.7992 55.4348 35.5021 54.9936 35.2989 54.5076C35.0956 54.0216 34.9901 53.5003 34.9883 52.9736C34.9847 51.9097 35.4041 50.888 36.154 50.1332C36.904 49.3785 37.9231 48.9524 38.9873 48.9489C40.0514 48.9453 41.0734 49.3645 41.8284 50.1143C42.5834 50.864 43.0095 51.8829 43.0131 52.9467Z" fill="currentColor"></path>
  </symbol>
  <symbol xmlns="http://www.w3.org/2000/svg" viewBox="0 0 48 60" id="ic_pdf">
    <path d="M14.387 43.8734C14.065 43.5969 13.5903 43.4583 12.9629 43.4575H11.248V46.6197H12.957C13.5899 46.6197 14.0646 46.4834 14.381 46.2109C14.6975 45.9383 14.8557 45.5499 14.8557 45.0457C14.8636 44.543 14.7074 44.1522 14.387 43.8734Z" fill="currentColor"></path>
    <path d="M47.3722 15.6942C46.5668 14.8601 45.7646 14.0271 44.9655 13.1954C40.9306 8.99091 36.8933 4.78882 32.8537 0.589078C32.538 0.248591 32.214 0 31.6942 0C23.4195 0.0141379 15.1452 0.0188505 6.87121 0.0141379C6.63528 0.0139219 6.40018 0.0420085 6.17104 0.097787C2.45655 1.00968 0.00593369 4.09999 0 7.88658C0 15.2406 0 22.5951 0 29.9499C0 37.3629 0.00237348 44.777 0.00712043 52.1924C0.0142409 56.4549 3.57683 59.9906 7.87519 59.9953C18.6112 60.0071 29.3476 60.0071 40.0845 59.9953C40.6534 59.9939 41.2203 59.9259 41.7732 59.7926C45.5541 58.8737 47.9858 55.761 47.9869 51.8424C47.9933 40.3216 47.9968 28.8008 47.9976 17.28C48.0061 16.9875 47.9551 16.6963 47.8477 16.4239C47.7402 16.1514 47.5785 15.9032 47.3722 15.6942ZM17.3845 47.1593C16.9722 47.7716 16.3891 48.2514 15.7065 48.5401C14.9818 48.8645 14.1273 49.0263 13.1431 49.0255H11.2443V51.853H8.17188V41.0517H13.1431C14.1273 41.0517 14.9818 41.2135 15.7065 41.5371C16.2107 41.7734 16.6589 42.1128 17.0219 42.5329C17.3849 42.9531 17.6544 43.4447 17.8128 43.9754C17.9712 44.5061 18.0149 45.0641 17.9411 45.6127C17.8673 46.1614 17.6777 46.6884 17.3845 47.1593ZM29.9236 49.3035C29.408 50.125 28.663 50.78 27.7792 51.1886C26.8575 51.6316 25.8009 51.8526 24.6094 51.8519H19.4625V41.0517H24.6046C25.7961 41.0517 26.8527 41.2728 27.7744 41.715C28.6582 42.1236 29.4033 42.7786 29.9189 43.6001C30.426 44.4114 30.6796 45.3626 30.6796 46.4536C30.6796 47.5445 30.4276 48.4945 29.9236 49.3035ZM40.8297 43.4127H35.3767V45.7879H40.1782V48.1442H35.3767V51.846H32.3006V41.0517H40.8297V43.4127ZM42.3725 15.4009C40.4998 15.4009 38.6271 15.3585 36.7568 15.415C34.807 15.4739 33.0186 13.98 33.0708 11.7851C33.1195 9.73275 33.0803 7.67687 33.0827 5.62217C33.0827 5.49492 33.0993 5.36651 33.1171 5.10849L42.9481 15.3585C42.6988 15.3761 42.5351 15.3997 42.3666 15.3997L42.3725 15.4009Z" fill="currentColor"></path>
    <path d="M24.4868 43.488H22.5488V49.4118H24.4915C25.4235 49.4118 26.1715 49.1495 26.7356 48.6248C27.2997 48.1001 27.5822 47.3752 27.583 46.4499C27.583 45.5239 27.3005 44.7989 26.7356 44.275C26.1708 43.7512 25.4211 43.4888 24.4868 43.488Z" fill="currentColor"></path>
  </symbol>
  <symbol xmlns="http://www.w3.org/2000/svg" viewBox="0 0 33 33" id="ic_search">
    <path d="M12.2578 0H14.3232C14.3916 0.0245607 14.4614 0.0449704 14.5323 0.0611179C15.1648 0.16872 15.8068 0.233281 16.4255 0.383924C24.5191 2.3242 28.8495 11.2715 25.3341 18.814C24.9116 19.7213 24.353 20.5657 23.8126 21.5169C23.8902 21.5606 23.9627 21.6129 24.0286 21.6727C26.7486 24.3895 29.4677 27.1065 32.1859 29.8238C32.5301 30.1681 32.852 30.5176 33 30.9937V31.7021C32.8374 31.9741 32.7186 32.2866 32.5052 32.5104C31.8494 33.1991 30.8202 33.1509 30.0956 32.4312C27.2844 29.6238 24.4764 26.8155 21.6715 24.0064C21.5906 23.9255 21.5054 23.8497 21.4177 23.7671C21.3393 23.8256 21.28 23.8704 21.2197 23.9143C17.6484 26.4778 13.7259 27.2241 9.51604 25.9915C2.48351 23.9307 -1.55512 16.5827 0.564449 9.56194C2.08851 4.51498 5.55486 1.41776 10.714 0.258245C11.2225 0.144617 11.7432 0.0860815 12.2578 0ZM13.2698 23.242C18.7249 23.2894 23.23 18.8019 23.2601 13.2901C23.2911 7.8162 18.8196 3.33049 13.3077 3.30467C7.84999 3.28315 3.36387 7.73184 3.30879 13.2238C3.25285 18.6797 7.745 23.1981 13.2698 23.242Z" fill="currentColor"></path>
  </symbol>
  <symbol xmlns="http://www.w3.org/2000/svg" viewBox="0 0 65 65" id="ic_telegram">
    <path d="M34.9804 64.054H30.4537C29.7301 63.962 29.003 63.8804 28.2811 63.7762C20.5769 62.634 14.0559 59.2438 8.81606 53.5189C4.52998 48.8937 1.75183 43.0897 0.846157 36.8684C0.722064 36.0525 0.603224 35.2349 0.484375 34.4173V29.6697C0.524574 29.5117 0.580493 29.3572 0.604962 29.1975C0.833922 27.7411 0.954519 26.2604 1.30408 24.83C5.46031 7.20913 23.2877 -3.51166 40.8635 1.05197C48.6578 3.06304 55.4112 7.90056 59.7928 14.6113C64.1743 21.322 65.8664 29.4193 64.5355 37.3075C63.34 44.5548 59.9406 50.6825 54.4962 55.654C50.0191 59.79 44.4241 62.5385 38.3973 63.5627C37.2578 63.7606 36.1165 63.8943 34.9804 64.054ZM32.2714 42.1819C32.4461 42.2999 32.5982 42.4006 32.7467 42.51L39.8917 47.7263C41.7111 49.0577 42.842 48.6099 43.3104 46.4122C44.8834 39.0382 46.4739 31.6694 48.0294 24.2954C48.2977 23.1442 48.4765 21.9743 48.5642 20.7959C48.6184 19.7543 47.7218 19.1537 46.6818 19.3811C46.4371 19.4364 46.197 19.5101 45.9635 19.6016L22.7931 28.4684C20.1714 29.47 17.562 30.4612 14.9578 31.4889C14.3443 31.7319 13.5945 32.0339 13.6487 32.8255C13.6994 33.5876 14.4666 33.7386 15.0854 33.9313C17.4571 34.6759 19.8324 35.405 22.1989 36.1601C22.3904 36.2328 22.597 36.2574 22.8004 36.2316C23.0038 36.2059 23.1976 36.1306 23.3646 36.0126C27.1119 33.6472 30.8679 31.2933 34.6326 28.951C36.868 27.5536 39.0965 26.1476 41.3528 24.7849C41.6447 24.6113 42.0852 24.6755 42.4557 24.6304C42.2809 24.9047 42.1691 25.2362 41.9314 25.4445C37.2252 29.687 32.5061 33.9179 27.7743 38.1373C27.6178 38.2711 27.4922 38.4368 27.406 38.6231C27.3197 38.8094 27.2749 39.0119 27.2744 39.217C27.1783 40.8782 27.0472 42.5395 26.9249 44.2007C26.8707 45.0148 26.827 45.8324 26.7798 46.6483L26.9546 46.7837C27.402 46.5077 27.9054 46.2942 28.2846 45.9453C29.6444 44.7232 30.9413 43.4491 32.2714 42.1819Z" fill="currentColor"></path>
  </symbol>
  <symbol xmlns="http://www.w3.org/2000/svg" viewBox="0 0 43 48" id="ic_video_play">
    <path d="M41 20.5359C43.6667 22.0755 43.6667 25.9245 41 27.4641L6.49999 47.3827C3.83333 48.9223 0.499998 46.9978 0.499998 43.9186L0.5 4.08141C0.5 1.00221 3.83333 -0.922289 6.5 0.617312L41 20.5359Z" fill="currentColor"></path>
  </symbol>
  <symbol xmlns="http://www.w3.org/2000/svg" viewBox="0 0 66 65" id="ic_vk">
    <path d="M30.207 0.163086H34.926C35.1322 0.206483 35.3367 0.260295 35.5447 0.288069C36.6144 0.430411 37.6997 0.501582 38.7554 0.71336C46.8109 2.32252 53.4368 6.29421 58.4495 12.769C64.3919 20.4572 66.4508 29.1696 64.6733 38.677C63.1825 46.6621 59.1031 53.1942 52.6381 58.1553C44.8954 64.0955 36.1127 66.1404 26.5104 64.4045C19.4703 63.1321 13.5104 59.768 8.65329 54.5447C4.21351 49.8387 1.32569 43.8989 0.375774 37.5192C0.24469 36.6721 0.124093 35.8232 0 34.9744V30.1643C0.0961282 29.4613 0.183518 28.7565 0.286637 28.0535C1.21122 21.8616 3.65462 16.3415 7.76541 11.5869C12.8567 5.6988 19.2466 2.02568 26.9561 0.650868C28.0345 0.466865 29.1234 0.327994 30.207 0.163086ZM24.9252 21.1447C25.0017 21.2021 25.0816 21.2549 25.1646 21.3026C25.2602 21.3487 25.3604 21.3848 25.4635 21.4102C26.6974 21.6602 27.4542 22.4275 27.5381 23.6461C27.6657 25.533 27.7007 27.4285 27.6867 29.3206C27.6625 30.0326 27.5226 30.736 27.2724 31.4037C26.9631 32.2855 26.3094 32.4799 25.5753 31.9106C25.0265 31.4819 24.5386 30.9815 24.1247 30.4229C22.2369 27.8506 20.6853 25.0509 19.507 22.0907C19.0806 21.0492 18.364 20.5423 17.2139 20.5614C15.5361 20.5926 13.8582 20.5614 12.1803 20.5614C11.6499 20.5605 11.1199 20.5918 10.5933 20.6551C9.85402 20.7506 9.56738 21.2002 9.76837 21.9015C9.85466 22.205 9.96693 22.5006 10.1039 22.7851C10.9411 24.5331 11.7451 26.3002 12.6417 28.0187C14.7915 32.1432 17.1283 36.1565 20.2533 39.6491C24.1142 43.9593 28.9643 45.8549 34.76 45.3775C35.9991 45.2751 36.3784 44.8672 36.4798 43.6417C36.5759 42.489 36.6214 41.3225 37.2296 40.281C37.7731 39.354 38.516 39.144 39.4126 39.7411C39.8959 40.0832 40.3417 40.4748 40.7426 40.9094C41.7284 41.9266 42.6652 42.9924 43.6649 43.9975C44.5301 44.8654 45.6015 45.4018 46.8389 45.4192C49.3225 45.4556 51.8079 45.4313 54.2932 45.4053C54.5766 45.4164 54.8532 45.3179 55.0648 45.1304C55.2764 44.9429 55.4065 44.6811 55.4275 44.4002C55.4782 43.8656 55.4572 43.1955 55.1741 42.7807C54.3276 41.5239 53.3931 40.3278 52.3776 39.2013C51.2556 37.9671 49.9762 36.8752 48.8087 35.6792C47.8666 34.714 47.8351 33.978 48.5622 32.8427C48.7114 32.6113 48.8681 32.3856 49.0324 32.1658C50.1352 30.6937 51.294 29.2616 52.3287 27.7445C53.3634 26.2273 54.3911 24.698 55.1846 23.0576C56.0585 21.2575 55.4904 20.5597 53.4525 20.5545C51.2224 20.5545 48.9922 20.5516 46.762 20.5458C45.3847 20.5458 45.0701 20.7975 44.5004 22.0404C43.6859 23.8196 42.9274 25.6406 41.9241 27.314C40.9978 28.8606 39.8268 30.2754 38.6837 31.6728C38.0301 32.4678 37.1859 32.3098 36.7787 31.369C36.5543 30.8261 36.4357 30.2459 36.4291 29.6591C36.3871 27.1699 36.4046 24.6806 36.3959 22.1949C36.3989 21.8785 36.379 21.5623 36.3365 21.2488C36.1879 20.2698 35.6373 19.7056 34.6376 19.6865C32.1313 19.6553 29.625 19.664 27.1221 19.6865C26.1084 19.7073 25.4163 20.2489 24.9252 21.1447Z" fill="currentColor"></path>
  </symbol>
  <symbol xmlns="http://www.w3.org/2000/svg" viewBox="0 0 65 65" id="ic_youtube">
    <path d="M30.3533 0H35.0093C35.2138 0.0416611 35.4148 0.0954733 35.6211 0.121512C36.6697 0.262118 37.7499 0.333289 38.7933 0.54333C46.7475 2.13166 53.2999 6.05301 58.2392 12.4515C64.2743 20.282 66.2563 29.1246 64.2341 38.7691C62.6436 46.3514 58.6656 52.5503 52.503 57.2753C44.8546 63.1391 36.1821 65.1632 26.6986 63.4481C19.7425 62.1913 13.8594 58.8654 9.06173 53.7081C4.6788 49.0597 1.82773 43.1942 0.889084 36.8944C0.759748 36.0577 0.6409 35.2193 0.518555 34.3826V29.6315C0.612935 28.9371 0.693332 28.2428 0.801695 27.5484C1.71579 21.4346 4.12249 15.9822 8.18959 11.2867C13.2162 5.46976 19.5292 1.8435 27.1408 0.491254C28.207 0.298571 29.2819 0.161437 30.3533 0ZM32.6446 17.923V18.1295C30.2344 18.1295 27.8207 18.0653 25.4123 18.1469C23.0038 18.2285 20.6024 18.4229 18.2027 18.6329C15.581 18.8621 13.7843 20.3688 13.3718 22.9292C13.0323 25.19 12.8071 27.4663 12.6971 29.7495C12.4963 33.3898 12.6779 37.041 13.2389 40.6439C13.5675 42.8155 14.6774 44.4125 16.8516 45.0773C17.717 45.3235 18.6088 45.4663 19.5082 45.5026C22.5214 45.6762 25.5346 45.8498 28.5513 45.9262C34.7996 46.0997 41.0445 46.0112 47.2701 45.3898C49.9529 45.1224 51.713 43.6782 52.1324 41.0501C52.4889 38.6654 52.717 36.2636 52.8158 33.8549C53.0032 30.3391 52.8152 26.8135 52.2548 23.3372C51.8772 21.0163 50.659 19.3655 48.2558 18.8378C47.1496 18.5963 46.0246 18.4499 44.8931 18.4003C40.8155 18.2059 36.7292 18.0757 32.6446 17.923Z" fill="currentColor"></path>
  </symbol>
</svg>